<?xml version="1.0" standalone="no"?>
<!DOCTYPE svg PUBLIC "-//W3C//DTD SVG 1.1//EN" "http://www.w3.org/Graphics/SVG/1.1/DTD/svg11.dtd" >
<svg xmlns="http://www.w3.org/2000/svg" xmlns:xlink="http://www.w3.org/1999/xlink" version="1.1">
<metadata>
Created by FontForge 20200427 at Thu Sep  8 17:47:12 2016
 By www
Copyright (c) 2010 by Rian Hughes / Device. All rights reserved.
</metadata>
<defs>
<font id="KorolevCompressedW04-Medium" horiz-adv-x="360" >
  <font-face 
    font-family="KorolevCompressedW04-Medium"
    font-weight="500"
    font-stretch="normal"
    units-per-em="1000"
    panose-1="2 0 0 0 0 0 0 0 0 0"
    ascent="800"
    descent="-200"
    x-height="561"
    cap-height="705"
    bbox="-27 -193 897 898"
    underline-thickness="50"
    underline-position="-125"
    unicode-range="U+0020-FB02"
  />
<missing-glyph horiz-adv-x="522" 
d="M73 0v700h376v-700h-376zM95 680v-658l154 328zM428 22v658l-155 -330zM261 325l-142 -303h284zM119 680l142 -305l142 305h-284z" />
    <glyph glyph-name="uniFB01" unicode="fi" horiz-adv-x="355" 
d="M306 561v-561h-68v561h68zM188 762q24 0 46 -6t39.5 -22t25 -41.5t7.5 -50.5h-68q0 30 -11 44.5t-40 14.5q-23 0 -37.5 -12t-14.5 -51v-77h67v-61h-67v-500h-68v500h-38v61h38v61q0 74 26.5 107t94.5 33z" />
    <glyph glyph-name="uniFB02" unicode="fl" horiz-adv-x="355" 
d="M306 640v-640h-68v635q-1 45 -14 55t-36 10t-38 -11.5t-15 -48.5v-79h67v-61h-67v-500h-68v500h-38v61h38v60q0 74 26.5 107.5t94.5 33.5q33 0 61 -11.5t42.5 -41t14.5 -69.5z" />
    <glyph glyph-name=".notdef" horiz-adv-x="522" 
d="M73 0v700h376v-700h-376zM95 680v-658l154 328zM428 22v658l-155 -330zM261 325l-142 -303h284zM119 680l142 -305l142 305h-284z" />
    <glyph glyph-name=".null" horiz-adv-x="0" 
 />
    <glyph glyph-name="nonmarkingreturn" horiz-adv-x="333" 
 />
    <glyph glyph-name="space" unicode=" " horiz-adv-x="138" 
 />
    <glyph glyph-name="exclam" unicode="!" horiz-adv-x="163" 
d="M71 126q-31 503 -31 537q0 22 11 35t30 13t30 -13t11 -35q0 -34 -30 -537h-21zM39 38q0 17 12.5 30t29.5 13q18 0 30.5 -13t12.5 -30q0 -18 -12.5 -30.5t-30.5 -12.5q-17 0 -29.5 12.5t-12.5 30.5z" />
    <glyph glyph-name="quotedbl" unicode="&#x22;" horiz-adv-x="263" 
d="M164 493l-9 212h73l-10 -212h-54zM44 493l-9 212h73l-10 -212h-54z" />
    <glyph glyph-name="numbersign" unicode="#" horiz-adv-x="430" 
d="M247 758l-51 -309h55l51 309h66l-51 -309h51v-63h-62l-9 -53h71v-62h-82l-51 -313h-66l51 313h-56l-50 -313h-66l50 313h-52v62h64l9 53h-73v63h84l51 309h66zM185 386l-9 -53h55l9 53h-55z" />
    <glyph glyph-name="dollar" unicode="$" horiz-adv-x="338" 
d="M170 712l16 -1v39h31v-45q44 -14 70.5 -51.5t26.5 -93.5h-70q0 20 -7.5 40.5t-26 32t-41.5 11.5q-30 0 -50.5 -18.5t-20.5 -49.5q0 -24 7.5 -46.5t26.5 -50.5l132 -191q23 -34 38.5 -69.5t15.5 -83.5q0 -51 -27.5 -87.5t-73.5 -48.5v-50h-31v44l-15 -1l-22 1v-44h-31v52
q-45 14 -71.5 53t-26.5 96h71q0 -22 8 -43.5t28 -33t45 -11.5q33 0 54 21t21 55q0 24 -8.5 47t-30.5 54l-131 191q-23 34 -37 67.5t-14 77.5q0 47 25.5 81.5t66.5 47.5v46h31v-40z" />
    <glyph glyph-name="percent" unicode="%" horiz-adv-x="660" 
d="M470 -5q-60 0 -93.5 38t-33.5 104v25q0 12 4 39.5t22 53t44.5 36.5t56.5 11q37 0 67.5 -17t45.5 -50.5t15 -72.5v-25q0 -66 -34 -104t-94 -38zM470 240q-29 0 -45.5 -19t-16.5 -57v-24q0 -84 62 -84q63 0 63 84v24q0 38 -17 57t-46 19zM503 758l-300 -790h-66l299 790h67
zM166 406q-60 0 -93.5 37.5t-33.5 103.5v26q0 12 4 39.5t22 53t44.5 36.5t56.5 11q36 0 67 -17t46 -50.5t15 -72.5v-26q0 -65 -34.5 -103t-93.5 -38zM166 651q-29 0 -45.5 -19.5t-16.5 -57.5v-23q0 -83 62 -83q29 0 46 20.5t17 62.5v23q0 38 -16.5 57.5t-46.5 19.5z" />
    <glyph glyph-name="ampersand" unicode="&#x26;" horiz-adv-x="415" 
d="M266 550v8q0 40 -22 62t-56 22t-56.5 -22t-22.5 -62v-86q0 -40 22.5 -61t57.5 -21h50v-63h-52q-34 0 -56 -22t-22 -62v-98q0 -40 22.5 -62t56.5 -22t56 22t22 62v86h116v-63h-47l-3 -51q-5 -36 -22.5 -63t-48 -44t-74.5 -17q-73 0 -111.5 46.5t-38.5 123.5v57
q0 109 80 136q-39 14 -59.5 50.5t-20.5 85.5v64q0 69 41 112t109 43q66 0 107.5 -46t41.5 -115h-70z" />
    <glyph glyph-name="quotesingle" unicode="'" horiz-adv-x="142" 
d="M44 493l-9 212h72l-10 -212h-53z" />
    <glyph glyph-name="parenleft" unicode="(" horiz-adv-x="215" 
d="M179 20v-62q-70 0 -103.5 29t-33.5 118v507q0 79 29 112.5t108 33.5v-62q-32 0 -50.5 -11t-18.5 -60v-533q0 -50 18 -61t51 -11z" />
    <glyph glyph-name="parenright" unicode=")" horiz-adv-x="215" 
d="M35 -42v62q33 0 51 11t18 61v533q0 49 -18.5 60t-50.5 11v62q51 0 80 -13.5t43 -43.5t14 -89v-507q0 -50 -10 -80.5t-38.5 -48.5t-88.5 -18z" />
    <glyph glyph-name="asterisk" unicode="*" horiz-adv-x="352" 
d="M303 619l-80 -43l80 -42l-27 -42l-78 45l3 -87h-51l2 87l-78 -45l-26 42l80 42l-80 43l26 43l78 -46l-2 89h51l-3 -89l78 45z" />
    <glyph glyph-name="plus" unicode="+" horiz-adv-x="341" 
d="M299 328h-98v-100h-62v100h-97v63h97v99h62v-99h98v-63z" />
    <glyph glyph-name="comma" unicode="," horiz-adv-x="176" 
d="M64 -79h-55l65 206h74z" />
    <glyph glyph-name="hyphen" unicode="-" horiz-adv-x="241" 
d="M204 298h-169v55h169v-55z" />
    <glyph glyph-name="period" unicode="." horiz-adv-x="155" 
d="M34 38q0 17 12.5 30t30.5 13t30.5 -13t12.5 -30q0 -18 -12.5 -30.5t-30.5 -12.5t-30.5 12.5t-12.5 30.5z" />
    <glyph glyph-name="slash" unicode="/" horiz-adv-x="234" 
d="M218 758l-133 -800h-69l132 800h70z" />
    <glyph glyph-name="zero" unicode="0" horiz-adv-x="384" 
d="M191 -6q-66 0 -107.5 43.5t-41.5 111.5v407q0 69 41.5 112.5t107.5 43.5t108 -43.5t42 -112.5v-407q0 -68 -42 -111.5t-108 -43.5zM191 63q34 0 56 22t22 62v412q0 40 -22 62t-56 22t-56 -22t-22 -62v-412q0 -40 22 -62t56 -22z" />
    <glyph glyph-name="one" unicode="1" horiz-adv-x="208" 
d="M30 594v69q34 0 45.5 8.5t11.5 33.5h66v-705h-71v600q-23 -9 -52 -6z" />
    <glyph glyph-name="two" unicode="2" horiz-adv-x="361" 
d="M311 69v-69h-286v33q0 74 25.5 140.5t78 142.5t68.5 100.5t28 52t17.5 50.5t5.5 46q0 37 -22.5 58t-54.5 21q-22 0 -41 -13t-27 -33t-8 -38h-70q0 68 41 110t105 42q65 0 106 -40t41 -106q0 -25 -6 -54.5t-20 -61.5t-31.5 -60t-71 -106.5t-70 -116.5t-20 -61t-3.5 -37
h215z" />
    <glyph glyph-name="three" unicode="3" horiz-adv-x="366" 
d="M124 327v63h52q34 0 56 21t22 61v86q0 40 -22 62t-56 22t-56.5 -22t-22.5 -62v-8h-70q0 71 40.5 116t108.5 45t109 -43t41 -112v-64q0 -49 -20.5 -85.5t-59.5 -50.5q44 -16 62 -52.5t18 -99.5v-41q0 -77 -38.5 -123.5t-111.5 -46.5q-69 0 -110 45t-41 117h72v-10
q0 -40 22.5 -62t56.5 -22t56 22t22 62v101q0 40 -21.5 60.5t-56.5 20.5h-52z" />
    <glyph glyph-name="four" unicode="4" horiz-adv-x="387" 
d="M298 705v-455h55v-66h-55v-184h-70v184h-199v65l202 456h67zM95 251l133 -1v306z" />
    <glyph glyph-name="five" unicode="5" horiz-adv-x="376" 
d="M34 149h71q0 -43 22 -65t57 -22q78 0 78 95v192q0 37 -19.5 59t-59.5 22q-16 0 -32.5 -7t-27 -21.5t-14.5 -30.5l-65 6l40 328h227v-68h-171l-25 -189q10 14 33 27t56 13q11 0 36.5 -4.5t48.5 -23.5t33.5 -48.5t10.5 -62.5v-180q0 -81 -38 -128.5t-112 -47.5
q-65 0 -107 43t-42 113z" />
    <glyph glyph-name="six" unicode="6" horiz-adv-x="377" 
d="M62 460l98 245h77l-94 -231q33 14 66 14q46 0 76.5 -23.5t41 -58.5t10.5 -64v-195q0 -69 -40.5 -111.5t-108.5 -42.5t-108 42.5t-40 111.5v158q0 55 4.5 89t17.5 66zM188 426q-35 0 -56 -20.5t-21 -61.5v-187q0 -95 77 -95q78 0 78 95v187q0 21 -8 41t-27 30.5t-43 10.5z
" />
    <glyph glyph-name="seven" unicode="7" horiz-adv-x="329" 
d="M156 0h-72l139 636h-187v69h270z" />
    <glyph glyph-name="eight" unicode="8" horiz-adv-x="381" 
d="M190 -8q-66 0 -107.5 43.5t-41.5 111.5v80q0 101 78 129q-39 13 -58.5 49.5t-19.5 86.5v64q0 69 41.5 112t107.5 43q65 0 107.5 -43.5t42.5 -111.5v-64q0 -49 -20.5 -85.5t-59.5 -50.5q40 -14 60 -47.5t20 -81.5v-80q0 -68 -42.5 -111.5t-107.5 -43.5zM190 61q34 0 56 22
t22 62v101q0 40 -22 62t-56 22t-56.5 -22t-22.5 -62v-101q0 -40 22.5 -62t56.5 -22zM190 388q34 0 56 22t22 62v86q0 40 -22 62t-56 22t-56.5 -22t-22.5 -62v-86q0 -40 22.5 -62t56.5 -22z" />
    <glyph glyph-name="nine" unicode="9" horiz-adv-x="377" 
d="M315 245l-98 -245h-77l94 230q-30 -13 -65 -13q-31 0 -61.5 13.5t-49 49t-18.5 83.5v195q0 69 40.5 111.5t108.5 42.5t108 -42.5t40 -111.5v-159q0 -100 -22 -154zM189 279q35 0 56 20.5t21 60.5v187q0 95 -77 95q-78 0 -78 -95v-187q0 -41 22.5 -61t55.5 -20z" />
    <glyph glyph-name="colon" unicode=":" horiz-adv-x="155" 
d="M34 38q0 18 12.5 30.5t30.5 12.5t30.5 -12.5t12.5 -30.5t-12.5 -30t-30.5 -12t-30.5 12t-12.5 30zM34 523q0 18 12.5 30.5t30.5 12.5t30.5 -12.5t12.5 -30.5t-12.5 -30.5t-30.5 -12.5t-30.5 12.5t-12.5 30.5z" />
    <glyph glyph-name="semicolon" unicode=";" horiz-adv-x="183" 
d="M142 523q0 -18 -12.5 -30.5t-30.5 -12.5t-30.5 12.5t-12.5 30.5t12.5 30.5t30.5 12.5t30.5 -12.5t12.5 -30.5zM64 -79h-55l65 206h74z" />
    <glyph glyph-name="less" unicode="&#x3c;" horiz-adv-x="312" 
d="M41 389l228 110v-67l-159 -72l159 -72v-67l-228 112v56z" />
    <glyph glyph-name="equal" unicode="=" horiz-adv-x="322" 
d="M279 271h-237v63h237v-63zM279 387h-237v62h237v-62z" />
    <glyph glyph-name="greater" unicode="&#x3e;" horiz-adv-x="312" 
d="M41 499l228 -110v-56l-228 -112v67l159 72l-159 72v67z" />
    <glyph glyph-name="question" unicode="?" horiz-adv-x="346" 
d="M198 38q0 -18 -12.5 -30t-30.5 -12t-30.5 12t-12.5 30q0 17 12.5 30t30.5 13t30.5 -13t12.5 -30zM171 644q-25 0 -44 -12t-26.5 -32t-7.5 -40h-70q0 72 39.5 112t108.5 40q65 0 103 -37.5t38 -98.5q0 -32 -11 -68t-46.5 -89.5t-47.5 -74t-21.5 -42.5t-17 -50.5
t-7.5 -67.5q0 -32 5 -58h-23q-15 49 -15 100q0 26 6 58.5t19 64.5t46 93t39.5 86t6.5 42q0 34 -22 54t-52 20z" />
    <glyph glyph-name="at" unicode="@" horiz-adv-x="431" 
d="M306 622v-511q22 1 33.5 12t11.5 39v377q0 66 -37 104t-97 38q-62 0 -100 -38t-38 -104v-375q0 -66 40.5 -102.5t111.5 -36.5h116v-30h-116q-86 0 -134.5 44.5t-48.5 124.5v375q0 29 9.5 63.5t35 60t56.5 37t68 11.5q26 0 54.5 -8t52.5 -27.5t40.5 -53.5t16.5 -83v-377
q0 -15 -4.5 -33t-19 -29.5t-35 -15.5t-64.5 -4v25q-6 -9 -20.5 -18.5t-37.5 -9.5q-36 0 -57 23.5t-21 70.5v360q0 27 11 50.5t30 33.5t37 10q16 0 32 -7t26 -21v25h48zM173 533v-344q0 -37 8.5 -53.5t33.5 -16.5q17 0 29 12.5t12 57.5v333q0 30 -9 44.5t-32 14.5
q-42 0 -42 -48z" />
    <glyph glyph-name="A" unicode="A" horiz-adv-x="369" 
d="M186 576l-66 -356h131zM289 0l-29 158h-150l-30 -158h-72l140 706h75l138 -706h-72z" />
    <glyph glyph-name="B" unicode="B" horiz-adv-x="383" 
d="M54 0v705h135q68 0 107.5 -33.5t39.5 -100.5v-105q0 -84 -56 -106q30 -12 45 -36.5t15 -70.5v-121q0 -67 -39 -99.5t-108 -32.5h-139zM125 68h66q30 0 47.5 9.5t24 30t6.5 47.5v93q0 46 -18 64.5t-54 18.5h-72v-263zM125 388h69q47 0 59 24t12 63v71q0 51 -18 70.5
t-61 19.5h-61v-248z" />
    <glyph glyph-name="C" unicode="C" horiz-adv-x="369" 
d="M344 532h-71v26q0 40 -22.5 62t-56.5 22t-56 -22t-22 -62v-411q0 -40 22 -62t56 -22t56.5 22t22.5 62v32h71v-30q0 -68 -42 -111.5t-108 -43.5t-107.5 43.5t-41.5 111.5v406q0 69 41.5 112.5t107.5 43.5t108 -43.5t42 -112.5v-23z" />
    <glyph glyph-name="D" unicode="D" horiz-adv-x="393" 
d="M199 705q68 -1 108.5 -44t40.5 -121v-374q0 -50 -16.5 -86t-49.5 -58t-83 -22h-144v705h144zM278 540q0 37 -14.5 59.5t-35 29.5t-37.5 7h-65v-568h65q27 0 48.5 13t30 36.5t8.5 48.5v374z" />
    <glyph glyph-name="E" unicode="E" horiz-adv-x="344" 
d="M304 705v-69h-179v-245h131v-63h-131v-259h179v-69h-250v705h250z" />
    <glyph glyph-name="F" unicode="F" horiz-adv-x="318" 
d="M295 705v-69h-170v-245h121v-63h-121v-328h-71v705h241z" />
    <glyph glyph-name="G" unicode="G" horiz-adv-x="385" 
d="M192 325h151v-177q0 -68 -41.5 -111t-107.5 -43t-107.5 43t-41.5 111v407q0 69 41.5 112.5t107.5 43.5q64 0 106 -43t43 -111h-71q0 40 -22 62t-56 22t-56 -21.5t-22 -61.5v-412q0 -21 8.5 -41t28 -31.5t41.5 -11.5q34 0 56 22t22 62v116h-80v63z" />
    <glyph glyph-name="H" unicode="H" horiz-adv-x="400" 
d="M126 328v-328h-72v705h72v-314h147v314h71v-705h-71v328h-147z" />
    <glyph glyph-name="I" unicode="I" horiz-adv-x="180" 
d="M125 705v-705h-71v705h71z" />
    <glyph glyph-name="J" unicode="J" horiz-adv-x="367" 
d="M246 146v559h72v-557q0 -69 -40 -112t-105 -43t-104.5 43t-39.5 112v37h71v-39q0 -41 20 -62.5t53 -21.5t53 21.5t20 62.5z" />
    <glyph glyph-name="K" unicode="K" horiz-adv-x="369" 
d="M220 362l136 -362h-79l-116 328h-35v-328h-72v705h72v-313h35l116 313h79z" />
    <glyph glyph-name="L" unicode="L" horiz-adv-x="314" 
d="M290 69v-69h-236v705h72v-636h164z" />
    <glyph glyph-name="M" unicode="M" horiz-adv-x="481" 
d="M214 63l-89 384v-447h-70v705h69l115 -517l116 517h70v-705h-71v449l-90 -386h-50z" />
    <glyph glyph-name="N" unicode="N" horiz-adv-x="411" 
d="M355 705v-705h-66l-163 490v-490h-71v705h65l164 -498v498h71z" />
    <glyph glyph-name="O" unicode="O" horiz-adv-x="389" 
d="M194 -6q-66 0 -107.5 43.5t-41.5 111.5v406q0 69 41.5 112.5t107.5 43.5t108 -43.5t42 -112.5v-406q0 -68 -42 -111.5t-108 -43.5zM194 63q34 0 56.5 22t22.5 62v411q0 40 -22.5 62t-56.5 22t-56 -22t-22 -62v-411q0 -40 22 -62t56 -22z" />
    <glyph glyph-name="P" unicode="P" horiz-adv-x="380" 
d="M126 0h-72v705h137q67 0 108 -41.5t41 -116.5v-194q0 -74 -41 -115t-108 -41h-65v-197zM183 636h-57v-371h57q27 0 48.5 12t30 33.5t8.5 43.5v193q0 23 -8.5 44.5t-29.5 33t-49 11.5z" />
    <glyph glyph-name="Q" unicode="Q" horiz-adv-x="384" 
d="M201 -84l-38 80q-40 7 -69.5 32.5t-40.5 58.5t-11 62v406q0 69 41.5 112.5t107.5 43.5t108 -43.5t42 -112.5v-406q0 -56 -29 -96.5t-77 -53.5l50 -83h-84zM191 63q34 0 56.5 22t22.5 62v411q0 40 -22.5 62t-56.5 22t-56 -22t-22 -62v-411q0 -40 22 -62t56 -22z" />
    <glyph glyph-name="R" unicode="R" horiz-adv-x="383" 
d="M126 0h-72v705h137q68 0 108.5 -41.5t40.5 -117.5v-171q0 -116 -90 -148l93 -227h-79l-82 209h-56v-209zM183 636h-57v-359h57q41 0 64 23.5t23 89.5v156q0 23 -8.5 45t-29.5 33.5t-49 11.5z" />
    <glyph glyph-name="S" unicode="S" horiz-adv-x="338" 
d="M170 712q63 0 103.5 -40.5t40.5 -111.5h-70q0 20 -7.5 40.5t-26 32t-41.5 11.5q-31 0 -52 -19.5t-21 -52.5q0 -43 39 -101l124 -179q24 -35 41.5 -72t17.5 -83q0 -64 -40.5 -104t-106.5 -40q-67 0 -109 41.5t-42 115.5h71q0 -22 8 -43.5t28 -33t45 -11.5q33 0 54 21.5
t21 56.5q0 25 -8.5 48.5t-33.5 58.5l-123 179q-56 82 -56 146q0 23 7.5 47.5t27.5 48t51 34t58 10.5z" />
    <glyph glyph-name="T" unicode="T" horiz-adv-x="314" 
d="M296 705v-69h-104v-636h-72v636h-102v69h278z" />
    <glyph glyph-name="U" unicode="U" horiz-adv-x="397" 
d="M276 146v559h71v-556q0 -68 -42 -111.5t-107 -43.5q-66 0 -108 43.5t-42 111.5v556h71v-559q0 -21 8.5 -41t28.5 -31t42 -11q33 0 55.5 21.5t22.5 61.5z" />
    <glyph glyph-name="V" unicode="V" horiz-adv-x="372" 
d="M148 0l-132 705h71l98 -557l97 557h71l-132 -705h-73z" />
    <glyph glyph-name="W" unicode="W" horiz-adv-x="539" 
d="M127 0l-111 705h72l77 -512l73 512h62l73 -512l77 512h71l-111 -705h-70l-71 505l-71 -505h-71z" />
    <glyph glyph-name="X" unicode="X" horiz-adv-x="367" 
d="M351 0h-76l-92 274l-91 -274h-77l130 362l-124 343h77l85 -258l86 258h76l-124 -343z" />
    <glyph glyph-name="Y" unicode="Y" horiz-adv-x="375" 
d="M151 0v265l-136 440h74l98 -336l98 336h74l-137 -440v-265h-71z" />
    <glyph glyph-name="Z" unicode="Z" horiz-adv-x="326" 
d="M296 69v-69h-274l191 636h-175v69h265l-192 -636h185z" />
    <glyph glyph-name="bracketleft" unicode="[" horiz-adv-x="229" 
d="M54 758h139v-62h-71v-676h71v-61h-139v799z" />
    <glyph glyph-name="backslash" unicode="\" horiz-adv-x="234" 
d="M148 -42l-132 800h69l133 -800h-70z" />
    <glyph glyph-name="bracketright" unicode="]" horiz-adv-x="229" 
d="M174 758v-799h-139v61h71v676h-71v62h139z" />
    <glyph glyph-name="asciicircum" unicode="^" horiz-adv-x="347" 
d="M204 599l107 -224h-66l-73 159l-71 -159h-67l108 224h62z" />
    <glyph glyph-name="underscore" unicode="_" horiz-adv-x="362" 
d="M325 -97h-289v56h289v-56z" />
    <glyph glyph-name="grave" unicode="`" horiz-adv-x="328" 
d="M194 583h-56l-64 103h74z" />
    <glyph glyph-name="a" unicode="a" 
d="M155 -6q-54 0 -84 33.5t-30 99.5v308q0 67 31 99.5t83 32.5q17 0 35.5 -5.5t33.5 -17t22 -22.5v39h64v-561h-64v39q-14 -21 -40 -33t-51 -12zM176 54q30 0 48 18t18 52v316q0 32 -18 50t-48 18t-48 -18.5t-18 -52.5v-313q0 -34 18 -52t48 -18z" />
    <glyph glyph-name="b" unicode="b" 
d="M203 -6q-17 0 -36 5.5t-33.5 17t-21.5 22.5v-39h-64v758h68v-236q14 23 38 34.5t49 11.5q52 0 83 -32.5t31 -99.5v-310q0 -66 -30 -99t-84 -33zM182 53q30 0 48.5 18.5t18.5 52.5v314q0 33 -18.5 52t-48.5 19q-28 0 -47 -18.5t-19 -49.5v-317q0 -34 18.5 -52.5
t47.5 -18.5z" />
    <glyph glyph-name="c" unicode="c" horiz-adv-x="343" 
d="M310 139v-3q0 -66 -35.5 -104t-98.5 -38q-64 0 -99.5 38t-35.5 104v291q0 64 35.5 102t99.5 38q62 0 98 -38t36 -102v-6h-68v14q0 33 -18.5 52t-47.5 19q-30 0 -48.5 -19t-18.5 -52v-308q0 -34 18.5 -52.5t48.5 -18.5q29 0 47.5 18.5t18.5 52.5v12h68z" />
    <glyph glyph-name="d" unicode="d" 
d="M155 -6q-52 0 -83 32.5t-31 99.5v309q0 67 31 99.5t83 32.5q25 0 50 -11.5t37 -32.5v235h68v-758h-64v39q-7 -11 -22 -22.5t-33.5 -17t-35.5 -5.5zM176 53q30 0 48 18.5t18 52.5v316q0 32 -18 50t-48 18t-48 -18.5t-18 -52.5v-313q0 -34 18 -52.5t48 -18.5z" />
    <glyph glyph-name="e" unicode="e" horiz-adv-x="352" 
d="M176 -6q-64 0 -99.5 38t-35.5 104v291q0 64 36 102.5t99 38.5q134 0 134 -159v-155h-201v-130q0 -30 20 -49.5t47 -19.5q29 0 47.5 17t18.5 45v6h68v-6q0 -24 -11.5 -52.5t-43 -49.5t-79.5 -21zM109 435v-131h133v120q0 42 -17.5 62.5t-48.5 20.5q-28 0 -47.5 -19
t-19.5 -53z" />
    <glyph glyph-name="f" unicode="f" horiz-adv-x="225" 
d="M205 758v-59l-15 1q-32 0 -43.5 -15t-11.5 -60v-64h70v-61h-70v-500h-68v500h-38v61h38v78q0 67 24 94.5t75 27.5q26 0 39 -3z" />
    <glyph glyph-name="g" unicode="g" 
d="M110 438v-293q0 -47 16.5 -69t49.5 -22q34 0 50 21.5t16 66.5v279q0 88 -66 88q-30 0 -48 -18.5t-18 -52.5zM242 -69v108q-14 -22 -38 -33.5t-49 -11.5q-54 0 -84 33.5t-30 99.5v308q0 63 29.5 96.5t78.5 33.5q34 0 60.5 -13t36.5 -30v39h64v-616q0 -31 -8 -64
t-38.5 -53.5t-86.5 -20.5q-37 0 -69 12t-47 40.5t-15 61.5h66q0 -26 16.5 -42.5t48.5 -16.5q35 0 50 17t15 52z" />
    <glyph glyph-name="h" unicode="h" horiz-adv-x="362" 
d="M116 440v-440h-68v758h68v-236q12 20 35.5 32.5t53.5 12.5q54 0 83 -32t29 -100v-435h-68v437q0 34 -18.5 52.5t-48.5 18.5q-29 0 -47.5 -18t-18.5 -50z" />
    <glyph glyph-name="i" unicode="i" horiz-adv-x="161" 
d="M114 561v-561h-68v561h68zM123 659q0 -16 -13 -28.5t-29 -12.5q-18 0 -30.5 12.5t-12.5 28.5q0 18 12.5 30t30.5 12q17 0 29.5 -12.5t12.5 -29.5z" />
    <glyph glyph-name="j" unicode="j" horiz-adv-x="163" 
d="M-8 -191v62q31 0 43.5 16t12.5 55v619h68v-606q0 -77 -28 -111.5t-96 -34.5zM124 659q0 -16 -12.5 -28.5t-29.5 -12.5t-29.5 12.5t-12.5 28.5q0 18 12.5 30t29.5 12t29.5 -12t12.5 -30z" />
    <glyph glyph-name="k" unicode="k" horiz-adv-x="334" 
d="M202 288l119 -288h-75l-102 258h-28v-258h-68v758h68v-442h28l102 245h74z" />
    <glyph glyph-name="l" unicode="l" horiz-adv-x="165" 
d="M116 758v-758h-68v758h68z" />
    <glyph glyph-name="m" unicode="m" horiz-adv-x="509" 
d="M116 449v-449h-68v561h65v-33q29 39 76 39q30 0 52.5 -13.5t34.5 -37.5q11 21 34 36t54 15q47 0 73.5 -31t26.5 -92v-444h-68v447q0 30 -15.5 46t-37.5 16q-19 0 -36 -15.5t-17 -44.5v-449h-68v447q0 30 -15 46t-38 16q-20 0 -36.5 -16t-16.5 -44z" />
    <glyph glyph-name="n" unicode="n" horiz-adv-x="362" 
d="M116 441v-441h-68v561h64v-40q15 23 40.5 34.5t50.5 11.5q52 0 83 -32.5t31 -99.5v-435h-68v438q0 33 -19 52t-48 19q-28 0 -47 -18.5t-19 -49.5z" />
    <glyph glyph-name="o" unicode="o" horiz-adv-x="353" 
d="M176 -6q-64 0 -99.5 38t-35.5 104v291q0 64 35.5 102t99.5 38q62 0 98 -38t36 -102v-291q0 -66 -35.5 -104t-98.5 -38zM176 56q29 0 47.5 18.5t18.5 52.5v308q0 33 -18.5 52t-47.5 19q-30 0 -48.5 -19t-18.5 -52v-308q0 -34 18.5 -52.5t48.5 -18.5z" />
    <glyph glyph-name="p" unicode="p" horiz-adv-x="362" 
d="M203 566q54 0 84 -33t30 -99v-307q0 -67 -31 -99.5t-83 -32.5q-25 0 -49 11t-38 34v-229h-68v750h64v-40q15 22 40.5 33.5t50.5 11.5zM182 507q-29 0 -47.5 -18t-18.5 -51v-313q0 -33 18.5 -51.5t47.5 -18.5q30 0 48.5 18.5t18.5 51.5v311q0 34 -18.5 52.5t-48.5 18.5z
" />
    <glyph glyph-name="q" unicode="q" horiz-adv-x="361" 
d="M157 566q26 0 51.5 -11.5t38.5 -33.5v40h65v-750h-68v229q-35 -45 -87 -45t-83 32.5t-31 99.5v306q0 66 30 99.5t84 33.5zM178 507q-30 0 -48.5 -18.5t-18.5 -53.5v-310q0 -33 18.5 -51.5t48.5 -18.5q29 0 47.5 18.5t18.5 51.5v313q0 33 -18.5 51t-47.5 18z" />
    <glyph glyph-name="r" unicode="r" horiz-adv-x="243" 
d="M214 566v-68l-12 1q-42 0 -64 -23t-22 -66v-410h-68v561h64v-40q29 46 90 46z" />
    <glyph glyph-name="s" unicode="s" horiz-adv-x="336" 
d="M164 568q65 0 99.5 -33t34.5 -97h-67q0 34 -18 51.5t-44 17.5q-28 0 -45.5 -17.5t-17.5 -44.5q0 -15 7.5 -33.5t21.5 -34.5l111 -128q25 -29 40.5 -59.5t15.5 -72.5q0 -34 -18 -63t-47 -44.5t-68 -15.5q-64 0 -100.5 35t-36.5 96h68q0 -34 19 -52t50 -18q29 0 47 19
t18 45q0 21 -5.5 37.5t-25.5 39.5l-110 128q-54 62 -54 122q0 22 10.5 50t40.5 50t74 22z" />
    <glyph glyph-name="t" unicode="t" horiz-adv-x="228" 
d="M10 500v58q33 0 44.5 17.5t11.5 71.5h50v-86h82v-61h-82v-375q0 -40 15 -54.5t51 -14.5l16 1v-60l-30 -2q-61 0 -90.5 29t-29.5 108v368h-38z" />
    <glyph glyph-name="u" unicode="u" horiz-adv-x="356" 
d="M244 120v441h68v-433q0 -61 -36.5 -97.5t-97.5 -36.5q-62 0 -98.5 36.5t-36.5 97.5v433h68v-441q0 -30 19 -47t48 -17q28 0 47 17t19 47z" />
    <glyph glyph-name="v" unicode="v" horiz-adv-x="339" 
d="M135 0l-118 561h72l81 -437l79 437h72l-116 -561h-70z" />
    <glyph glyph-name="w" unicode="w" horiz-adv-x="485" 
d="M115 0l-99 561h69l65 -390l62 390h59l61 -390l66 390h69l-99 -561h-66l-61 387l-60 -387h-66z" />
    <glyph glyph-name="x" unicode="x" horiz-adv-x="350" 
d="M330 0h-75l-81 218l-81 -218h-75l118 289l-110 272h75l73 -200l74 200h75l-111 -272z" />
    <glyph glyph-name="y" unicode="y" horiz-adv-x="342" 
d="M93 -189l42 196l-118 554h72l81 -419l81 419h73l-161 -750h-70z" />
    <glyph glyph-name="z" unicode="z" horiz-adv-x="314" 
d="M277 62v-62h-247l166 500h-154v61h243l-165 -499h157z" />
    <glyph glyph-name="braceleft" unicode="{" horiz-adv-x="232" 
d="M133 625v-162q0 -86 -36 -103q19 -9 27.5 -37.5t8.5 -79.5v-152q0 -37 14 -54.5t49 -17.5v-62q-38 0 -66.5 11t-47 43.5t-18.5 110.5v169q0 20 -7.5 30t-27.5 10v59q15 0 25 7t10 33v162q0 89 28.5 127.5t103.5 38.5v-62q-35 0 -49 -16.5t-14 -54.5z" />
    <glyph glyph-name="bar" unicode="|" horiz-adv-x="165" 
d="M116 758v-800h-68v800h68z" />
    <glyph glyph-name="braceright" unicode="}" horiz-adv-x="232" 
d="M99 442v183q0 35 -15 53t-49 18v62q71 0 101.5 -34.5t30.5 -111.5v-182q0 -21 7.5 -31t27.5 -10v-58q-15 0 -25 -7.5t-10 -32.5v-169q0 -56 -10.5 -90.5t-37.5 -54.5t-84 -20v62q35 0 49.5 17t14.5 55v151q0 98 36 118q-17 8 -26.5 30t-9.5 52z" />
    <glyph glyph-name="uni00A0" unicode="&#xa0;" horiz-adv-x="315" 
 />
    <glyph glyph-name="exclamdown" unicode="&#xa1;" horiz-adv-x="155" 
d="M88 579q30 -502 30 -536q0 -21 -11 -34t-30 -13t-30 13t-11 34q0 34 30 536h22zM34 668q0 18 12.5 30t30.5 12t30.5 -12t12.5 -30t-12.5 -30.5t-30.5 -12.5t-30.5 12.5t-12.5 30.5z" />
    <glyph glyph-name="cent" unicode="&#xa2;" horiz-adv-x="344" 
d="M310 139v-3q0 -51 -22.5 -86.5t-61.5 -48.5v-52h-31v46l-19 -1l-18 1v-46h-31v52q-41 13 -63.5 48t-22.5 87v291q0 50 22.5 85t63.5 48v52h31v-46l18 1l19 -1v46h31v-53q39 -13 61.5 -48t22.5 -84v-6h-68v14q0 33 -18.5 52t-47.5 19q-30 0 -48.5 -19t-18.5 -52v-308
q0 -34 18.5 -52.5t48.5 -18.5q29 0 47.5 18.5t18.5 52.5v12h68z" />
    <glyph glyph-name="sterling" unicode="&#xa3;" horiz-adv-x="380" 
d="M110 334q-34 90 -45 128t-13.5 65.5t-2.5 38.5q0 67 40.5 106.5t105.5 39.5q64 0 106 -42t42 -110h-70q0 39 -21.5 61.5t-55.5 22.5t-55 -21.5t-21 -60.5q0 -18 3.5 -43t12.5 -56t23.5 -73.5t18.5 -55.5h91v-31h-82l12 -37h70v-31h-63q24 -89 24 -166h104v-69h-291v69
h125q1 70 -26 166h-93v31h84l-12 37h-72v31h61z" />
    <glyph glyph-name="yen" unicode="&#xa5;" horiz-adv-x="375" 
d="M99 195h52v70l-136 440h74l98 -329l98 329h74l-137 -439v-71h52v-30h-52v-38h51v-30h-51v-97h-71v97h-52v30h52v38h-52v30z" />
    <glyph glyph-name="brokenbar" unicode="&#xa6;" horiz-adv-x="165" 
d="M48 322h68v-364h-68v364zM48 401v357h68v-357h-68z" />
    <glyph glyph-name="dieresis" unicode="&#xa8;" horiz-adv-x="315" 
d="M70 615q0 13 10.5 23.5t23.5 10.5t23.5 -10.5t10.5 -23.5t-10.5 -23.5t-23.5 -10.5t-23.5 10.5t-10.5 23.5zM175 615q0 13 10.5 23.5t23.5 10.5t23.5 -10.5t10.5 -23.5t-10.5 -23.5t-23.5 -10.5t-23.5 10.5t-10.5 23.5z" />
    <glyph glyph-name="copyright" unicode="&#xa9;" horiz-adv-x="431" 
d="M53 164v380q0 79 45 124t119 45t119 -45t45 -124v-380q0 -79 -45 -124t-119 -45t-119 45t-45 124zM351 164v380q0 65 -36.5 102t-97.5 37t-97.5 -37t-36.5 -102v-380q0 -65 36.5 -102t97.5 -37t97.5 37t36.5 102zM261 244h52v-68q0 -47 -25 -75t-70 -28q-46 0 -71.5 27.5
t-25.5 73.5v361q0 48 25.5 75.5t71.5 27.5q45 0 70 -27.5t25 -75.5v-62h-52v48q0 37 -9 54t-34 17q-22 0 -33.5 -13t-11.5 -37v-374q0 -24 12 -36t33 -12q26 0 34.5 17.5t8.5 55.5v51z" />
    <glyph glyph-name="ordfeminine" unicode="&#xaa;" horiz-adv-x="355" 
d="M153 146q-53 0 -82 33t-29 100v300q0 68 30 99.5t81 31.5q33 0 56 -14t32 -29v38h64v-553h-64v39q-13 -22 -38 -33.5t-50 -11.5zM174 206q29 0 46 18t17 53v307q0 32 -17.5 50t-45.5 18q-30 0 -47 -18.5t-17 -52.5v-304q0 -35 17 -53t47 -18zM131 38q0 18 12.5 30.5
t30.5 12.5t30.5 -12.5t12.5 -30.5t-12.5 -30t-30.5 -12t-30.5 12t-12.5 30z" />
    <glyph glyph-name="guillemotleft" unicode="&#xab;" horiz-adv-x="329" 
d="M239 454h55l-65 -128l65 -129h-55l-83 129zM118 454h55l-65 -128l65 -129h-55l-83 129z" />
    <glyph glyph-name="registered" unicode="&#xae;" horiz-adv-x="431" 
d="M178 80h-50v544h81q56 0 78 -32.5t22 -93.5v-151q0 -79 -61 -96l63 -171h-55l-53 161h-25v-161zM204 576h-26v-288h24q29 0 43 13t14 46v172q0 32 -13 44.5t-42 12.5zM53 164v380q0 79 45 124t119 45t119 -45t45 -124v-380q0 -79 -45 -124t-119 -45t-119 45t-45 124z
M351 164v380q0 65 -36.5 102t-97.5 37t-97.5 -37t-36.5 -102v-380q0 -65 36.5 -102t97.5 -37t97.5 37t36.5 102z" />
    <glyph glyph-name="macron" unicode="&#xaf;" 
d="M270 584h-181v51h181v-51z" />
    <glyph glyph-name="degree" unicode="&#xb0;" horiz-adv-x="282" 
d="M140 501q-46 0 -72 28t-26 78q0 47 26 75.5t72 28.5q45 0 72 -28.5t27 -75.5q0 -48 -26.5 -77t-72.5 -29zM140 664q-46 0 -46 -60q0 -55 46 -55q47 0 47 61q0 27 -12.5 40.5t-34.5 13.5z" />
    <glyph glyph-name="acute" unicode="&#xb4;" horiz-adv-x="328" 
d="M188 584h-55l46 102h73z" />
    <glyph glyph-name="paragraph" unicode="&#xb6;" horiz-adv-x="239" 
d="M191 705v-735h-65v544h-24q-60 0 -60 70v53q0 28 12.5 48t49.5 20h87z" />
    <glyph glyph-name="periodcentered" unicode="&#xb7;" horiz-adv-x="155" 
d="M34 326q0 17 12.5 30t30.5 13t30.5 -13t12.5 -30q0 -18 -12.5 -30.5t-30.5 -12.5t-30.5 12.5t-12.5 30.5z" />
    <glyph glyph-name="cedilla" unicode="&#xb8;" horiz-adv-x="336" 
d="M153 20h45l-36 -121h-74z" />
    <glyph glyph-name="ordmasculine" unicode="&#xba;" horiz-adv-x="342" 
d="M170 144q-63 0 -97.5 38t-34.5 104v285q0 64 34.5 102t97.5 38q62 0 96.5 -38t34.5 -102v-285q0 -66 -34.5 -104t-96.5 -38zM170 206q29 0 46.5 18.5t17.5 52.5v301q0 34 -17.5 52.5t-46.5 18.5q-30 0 -47 -18.5t-17 -52.5v-301q0 -34 17.5 -52.5t46.5 -18.5zM128 38
q0 18 12.5 30.5t29.5 12.5q18 0 30.5 -12.5t12.5 -30.5t-12.5 -30t-30.5 -12q-17 0 -29.5 12t-12.5 30z" />
    <glyph glyph-name="guillemotright" unicode="&#xbb;" horiz-adv-x="329" 
d="M34 454h54l84 -128l-84 -129h-54l65 129zM155 454h55l82 -128l-82 -129h-55l64 129z" />
    <glyph glyph-name="questiondown" unicode="&#xbf;" horiz-adv-x="346" 
d="M147 668q0 18 12.5 30t30.5 12q17 0 30 -12.5t13 -29.5q0 -18 -13 -30.5t-30 -12.5q-18 0 -30.5 12.5t-12.5 30.5zM174 62q34 0 55.5 21.5t21.5 61.5h70q0 -72 -39.5 -111.5t-107.5 -39.5q-65 0 -103.5 37.5t-38.5 97.5q0 32 11 67.5t46.5 89t50 78t24 49.5t15 51t5.5 58
q0 24 -5 57h23q15 -49 15 -99q0 -26 -6 -58.5t-19 -64.5t-46 -93.5t-39.5 -86.5t-6.5 -42q0 -35 22 -54t52 -19z" />
    <glyph glyph-name="Agrave" unicode="&#xc0;" horiz-adv-x="386" 
d="M194 576l-66 -356h131zM297 0l-29 158h-150l-30 -158h-72l140 706h75l138 -706h-72zM223 750h-56l-64 103h74z" />
    <glyph glyph-name="Aacute" unicode="&#xc1;" horiz-adv-x="386" 
d="M194 576l-66 -356h131zM297 0l-29 158h-150l-30 -158h-72l140 706h75l138 -706h-72zM219 750h-55l46 102h73z" />
    <glyph glyph-name="Acircumflex" unicode="&#xc2;" horiz-adv-x="386" 
d="M194 576l-66 -356h131zM297 0l-29 158h-150l-30 -158h-72l140 706h75l138 -706h-72zM143 742h-57l76 100h64l76 -100h-57l-51 55z" />
    <glyph glyph-name="Atilde" unicode="&#xc3;" horiz-adv-x="386" 
d="M194 576l-66 -356h131zM297 0l-29 158h-150l-30 -158h-72l140 706h75l138 -706h-72zM300 829v-58q-16 -11 -31 -15.5t-30 -4.5t-40.5 8.5t-37 10t-21 1t-23 -4.5t-29.5 -15v58q13 7 26.5 11.5t30 5t43 -7t41 -10.5t33.5 2t38 19z" />
    <glyph glyph-name="Adieresis" unicode="&#xc4;" horiz-adv-x="386" 
d="M194 576l-66 -356h131zM297 0l-29 158h-150l-30 -158h-72l140 706h75l138 -706h-72zM107 785q0 13 10.5 23.5t23.5 10.5t23.5 -10.5t10.5 -23.5t-10.5 -23.5t-23.5 -10.5t-23.5 10.5t-10.5 23.5zM212 785q0 13 10.5 23.5t23.5 10.5t23.5 -10.5t10.5 -23.5t-10.5 -23.5
t-23.5 -10.5t-23.5 10.5t-10.5 23.5z" />
    <glyph glyph-name="Aring" unicode="&#xc5;" horiz-adv-x="386" 
d="M194 576l-66 -356h131zM297 0l-29 158h-150l-30 -158h-72l140 706h75l138 -706h-72zM193 787q7 0 12.5 5.5t5.5 12.5t-5.5 12.5t-12.5 5.5t-12.5 -5.5t-5.5 -12.5t5.5 -12.5t12.5 -5.5zM193 751q-22 0 -38 16t-16 38q0 21 16 37t38 16t38 -16t16 -37q0 -22 -16 -38
t-38 -16z" />
    <glyph glyph-name="AE" unicode="&#xc6;" horiz-adv-x="585" 
d="M167 220h126v366zM544 0h-250v158h-145l-57 -158h-77l256 705h273v-69h-179v-245h130v-63h-130v-259h179v-69z" />
    <glyph glyph-name="Ccedilla" unicode="&#xc7;" horiz-adv-x="369" 
d="M344 532h-71v26q0 40 -22.5 62t-56.5 22t-56 -22t-22 -62v-411q0 -40 22 -62t56 -22t56.5 22t22.5 62v32h71v-30q0 -28 -11 -61t-41 -58.5t-69 -32.5l-28 -98h-73l51 96q-58 7 -93 49t-35 105v406q0 69 41.5 112.5t107.5 43.5t108 -43.5t42 -112.5v-23z" />
    <glyph glyph-name="Egrave" unicode="&#xc8;" horiz-adv-x="344" 
d="M304 705v-69h-179v-245h131v-63h-131v-259h179v-69h-250v705h250zM225 753h-56l-64 103h74z" />
    <glyph glyph-name="Eacute" unicode="&#xc9;" horiz-adv-x="344" 
d="M304 705v-69h-179v-245h131v-63h-131v-259h179v-69h-250v705h250zM205 754h-55l46 102h73z" />
    <glyph glyph-name="Ecircumflex" unicode="&#xca;" horiz-adv-x="344" 
d="M304 705v-69h-179v-245h131v-63h-131v-259h179v-69h-250v705h250zM123 754h-57l76 100h64l76 -100h-57l-51 55z" />
    <glyph glyph-name="Edieresis" unicode="&#xcb;" horiz-adv-x="344" 
d="M304 705v-69h-179v-245h131v-63h-131v-259h179v-69h-250v705h250zM89 785q0 13 10.5 23.5t23.5 10.5t23.5 -10.5t10.5 -23.5t-10.5 -23.5t-23.5 -10.5t-23.5 10.5t-10.5 23.5zM194 785q0 13 10.5 23.5t23.5 10.5t23.5 -10.5t10.5 -23.5t-10.5 -23.5t-23.5 -10.5
t-23.5 10.5t-10.5 23.5z" />
    <glyph glyph-name="Igrave" unicode="&#xcc;" horiz-adv-x="178" 
d="M125 705v-705h-71v705h71zM123 753h-56l-64 103h74z" />
    <glyph glyph-name="Iacute" unicode="&#xcd;" horiz-adv-x="178" 
d="M125 705v-705h-71v705h71zM110 754h-55l46 102h73z" />
    <glyph glyph-name="Icircumflex" unicode="&#xce;" horiz-adv-x="177" 
d="M125 705v-705h-71v705h71zM38 754h-57l76 100h64l76 -100h-57l-51 55z" />
    <glyph glyph-name="Idieresis" unicode="&#xcf;" horiz-adv-x="178" 
d="M125 705v-705h-71v705h71zM3 785q0 13 10.5 23.5t23.5 10.5t23.5 -10.5t10.5 -23.5t-10.5 -23.5t-23.5 -10.5t-23.5 10.5t-10.5 23.5zM108 785q0 13 10.5 23.5t23.5 10.5t23.5 -10.5t10.5 -23.5t-10.5 -23.5t-23.5 -10.5t-23.5 10.5t-10.5 23.5z" />
    <glyph glyph-name="Eth" unicode="&#xd0;" horiz-adv-x="391" 
d="M53 377v328h144q68 0 108.5 -42.5t40.5 -122.5v-374q0 -80 -40.5 -123t-108.5 -43h-144v346h-43v31h43zM190 637h-66v-260h75v-31h-75v-278h66q39 0 62.5 25.5t23.5 91.5v336q0 33 -7.5 60.5t-28 41.5t-50.5 14z" />
    <glyph glyph-name="Ntilde" unicode="&#xd1;" horiz-adv-x="411" 
d="M355 705v-705h-66l-163 490v-490h-71v705h65l164 -498v498h71zM309 829v-58q-16 -11 -31 -15.5t-30 -4.5t-40.5 8.5t-37 10t-21 1t-23 -4.5t-29.5 -15v58q13 7 26.5 11.5t30 5t43 -7t41 -10.5t33.5 2t38 19z" />
    <glyph glyph-name="Ograve" unicode="&#xd2;" horiz-adv-x="389" 
d="M194 -6q-66 0 -107.5 43.5t-41.5 111.5v406q0 69 41.5 112.5t107.5 43.5t108 -43.5t42 -112.5v-406q0 -68 -42 -111.5t-108 -43.5zM194 63q34 0 56.5 22t22.5 62v411q0 40 -22.5 62t-56.5 22t-56 -22t-22 -62v-411q0 -40 22 -62t56 -22zM225 753h-56l-64 103h74z" />
    <glyph glyph-name="Oacute" unicode="&#xd3;" horiz-adv-x="389" 
d="M194 -6q-66 0 -107.5 43.5t-41.5 111.5v406q0 69 41.5 112.5t107.5 43.5t108 -43.5t42 -112.5v-406q0 -68 -42 -111.5t-108 -43.5zM194 63q34 0 56.5 22t22.5 62v411q0 40 -22.5 62t-56.5 22t-56 -22t-22 -62v-411q0 -40 22 -62t56 -22zM221 754h-55l46 102h73z" />
    <glyph glyph-name="Ocircumflex" unicode="&#xd4;" horiz-adv-x="389" 
d="M194 -6q-66 0 -107.5 43.5t-41.5 111.5v406q0 69 41.5 112.5t107.5 43.5t108 -43.5t42 -112.5v-406q0 -68 -42 -111.5t-108 -43.5zM194 63q34 0 56.5 22t22.5 62v411q0 40 -22.5 62t-56.5 22t-56 -22t-22 -62v-411q0 -40 22 -62t56 -22zM143 754h-57l76 100h64l76 -100
h-57l-51 55z" />
    <glyph glyph-name="Otilde" unicode="&#xd5;" horiz-adv-x="389" 
d="M194 -6q-66 0 -107.5 43.5t-41.5 111.5v406q0 69 41.5 112.5t107.5 43.5t108 -43.5t42 -112.5v-406q0 -68 -42 -111.5t-108 -43.5zM194 63q34 0 56.5 22t22.5 62v411q0 40 -22.5 62t-56.5 22t-56 -22t-22 -62v-411q0 -40 22 -62t56 -22zM300 829v-58q-16 -11 -31 -15.5
t-30 -4.5t-40.5 8.5t-37 10t-21 1t-23 -4.5t-29.5 -15v58q13 7 26.5 11.5t30 5t43 -7t41 -10.5t33.5 2t38 19z" />
    <glyph glyph-name="Odieresis" unicode="&#xd6;" horiz-adv-x="389" 
d="M194 -6q-66 0 -107.5 43.5t-41.5 111.5v406q0 69 41.5 112.5t107.5 43.5t108 -43.5t42 -112.5v-406q0 -68 -42 -111.5t-108 -43.5zM194 63q34 0 56.5 22t22.5 62v411q0 40 -22.5 62t-56.5 22t-56 -22t-22 -62v-411q0 -40 22 -62t56 -22zM106 785q0 13 10.5 23.5
t23.5 10.5t23.5 -10.5t10.5 -23.5t-10.5 -23.5t-23.5 -10.5t-23.5 10.5t-10.5 23.5zM211 785q0 13 10.5 23.5t23.5 10.5t23.5 -10.5t10.5 -23.5t-10.5 -23.5t-23.5 -10.5t-23.5 10.5t-10.5 23.5z" />
    <glyph glyph-name="multiply" unicode="&#xd7;" horiz-adv-x="325" 
d="M239 238l-77 77l-76 -77l-45 45l77 76l-77 77l45 45l76 -77l76 77l45 -45l-77 -77l77 -76z" />
    <glyph glyph-name="Oslash" unicode="&#xd8;" horiz-adv-x="389" 
d="M119 -51h-31l16 73q-28 20 -43.5 53.5t-15.5 73.5v406q0 69 41.5 112.5t107.5 43.5q33 0 60 -12l13 59h31l-17 -73q29 -20 46 -54.5t17 -75.5v-406q0 -68 -42 -111.5t-108 -43.5q-30 0 -63 12zM194 63q34 0 56.5 22t22.5 62v411q0 25 -10 45l-116 -527q19 -13 47 -13z
M116 147q0 -25 7 -40l115 523q-18 12 -44 12q-34 0 -56 -22t-22 -62v-411z" />
    <glyph glyph-name="Ugrave" unicode="&#xd9;" horiz-adv-x="397" 
d="M276 146v559h71v-556q0 -68 -42 -111.5t-107 -43.5q-66 0 -108 43.5t-42 111.5v556h71v-559q0 -21 8.5 -41t28.5 -31t42 -11q33 0 55.5 21.5t22.5 61.5zM232 753h-56l-64 103h74z" />
    <glyph glyph-name="Uacute" unicode="&#xda;" horiz-adv-x="397" 
d="M276 146v559h71v-556q0 -68 -42 -111.5t-107 -43.5q-66 0 -108 43.5t-42 111.5v556h71v-559q0 -21 8.5 -41t28.5 -31t42 -11q33 0 55.5 21.5t22.5 61.5zM222 754h-55l46 102h73z" />
    <glyph glyph-name="Ucircumflex" unicode="&#xdb;" horiz-adv-x="397" 
d="M276 146v559h71v-556q0 -68 -42 -111.5t-107 -43.5q-66 0 -108 43.5t-42 111.5v556h71v-559q0 -21 8.5 -41t28.5 -31t42 -11q33 0 55.5 21.5t22.5 61.5zM145 754h-57l76 100h64l76 -100h-57l-51 55z" />
    <glyph glyph-name="Udieresis" unicode="&#xdc;" horiz-adv-x="397" 
d="M276 146v559h71v-556q0 -68 -42 -111.5t-107 -43.5q-66 0 -108 43.5t-42 111.5v556h71v-559q0 -21 8.5 -41t28.5 -31t42 -11q33 0 55.5 21.5t22.5 61.5zM110 785q0 13 10.5 23.5t23.5 10.5t23.5 -10.5t10.5 -23.5t-10.5 -23.5t-23.5 -10.5t-23.5 10.5t-10.5 23.5z
M215 785q0 13 10.5 23.5t23.5 10.5t23.5 -10.5t10.5 -23.5t-10.5 -23.5t-23.5 -10.5t-23.5 10.5t-10.5 23.5z" />
    <glyph glyph-name="Yacute" unicode="&#xdd;" horiz-adv-x="375" 
d="M151 0v265l-136 440h74l98 -336l98 336h74l-137 -440v-265h-71zM218 754h-55l46 102h73z" />
    <glyph glyph-name="Thorn" unicode="&#xde;" horiz-adv-x="380" 
d="M125 705v-84h66q67 0 108 -41.5t41 -116.5v-211q0 -74 -41 -115t-108 -41h-65v-96h-72v705h71zM183 552h-57v-388h57q27 0 48.5 12t30 33.5t8.5 43.5v210q0 45 -24.5 67t-62.5 22z" />
    <glyph glyph-name="germandbls" unicode="&#xdf;" horiz-adv-x="412" 
d="M340 618q0 -68 -54 -85q43 -13 63 -49t20 -89v-242q0 -172 -160 -156v63q41 -4 66 18.5t25 91.5v212q0 70 -20 93t-71 23v63q33 0 47 13.5t14 40.5v28q0 27 -14.5 41.5t-40.5 14.5h-12q-34 0 -46.5 -18t-12.5 -63v-618h-69v498h-43v63h43v59q0 74 30 108.5t102 34.5h6
q66 0 96.5 -31t30.5 -82v-32z" />
    <glyph glyph-name="agrave" unicode="&#xe0;" 
d="M155 -6q-54 0 -84 33.5t-30 99.5v308q0 67 31 99.5t83 32.5q17 0 35.5 -5.5t33.5 -17t22 -22.5v39h64v-561h-64v39q-14 -21 -40 -33t-51 -12zM176 54q30 0 48 18t18 52v316q0 32 -18 50t-48 18t-48 -18.5t-18 -52.5v-313q0 -34 18 -52t48 -18zM222 607h-56l-64 103h74z
" />
    <glyph glyph-name="aacute" unicode="&#xe1;" 
d="M155 -6q-54 0 -84 33.5t-30 99.5v308q0 67 31 99.5t83 32.5q17 0 35.5 -5.5t33.5 -17t22 -22.5v39h64v-561h-64v39q-14 -21 -40 -33t-51 -12zM176 54q30 0 48 18t18 52v316q0 32 -18 50t-48 18t-48 -18.5t-18 -52.5v-313q0 -34 18 -52t48 -18zM202 609h-55l46 102h73z
" />
    <glyph glyph-name="acircumflex" unicode="&#xe2;" 
d="M155 -6q-54 0 -84 33.5t-30 99.5v308q0 67 31 99.5t83 32.5q17 0 35.5 -5.5t33.5 -17t22 -22.5v39h64v-561h-64v39q-14 -21 -40 -33t-51 -12zM176 54q30 0 48 18t18 52v316q0 32 -18 50t-48 18t-48 -18.5t-18 -52.5v-313q0 -34 18 -52t48 -18zM128 608h-57l76 100h64
l76 -100h-57l-51 55z" />
    <glyph glyph-name="atilde" unicode="&#xe3;" 
d="M155 -6q-54 0 -84 33.5t-30 99.5v308q0 67 31 99.5t83 32.5q17 0 35.5 -5.5t33.5 -17t22 -22.5v39h64v-561h-64v39q-14 -21 -40 -33t-51 -12zM176 54q30 0 48 18t18 52v316q0 32 -18 50t-48 18t-48 -18.5t-18 -52.5v-313q0 -34 18 -52t48 -18zM283 680v-58
q-16 -11 -31 -15.5t-30 -4.5t-40.5 8.5t-37 10t-21 1t-23 -4.5t-29.5 -15v58q13 7 26.5 11.5t30 5t43 -7t41 -10.5t33.5 2t38 19z" />
    <glyph glyph-name="adieresis" unicode="&#xe4;" 
d="M155 -6q-54 0 -84 33.5t-30 99.5v308q0 67 31 99.5t83 32.5q17 0 35.5 -5.5t33.5 -17t22 -22.5v39h64v-561h-64v39q-14 -21 -40 -33t-51 -12zM176 54q30 0 48 18t18 52v316q0 32 -18 50t-48 18t-48 -18.5t-18 -52.5v-313q0 -34 18 -52t48 -18zM91 640q0 13 10.5 23.5
t23.5 10.5t23.5 -10.5t10.5 -23.5t-10.5 -23.5t-23.5 -10.5t-23.5 10.5t-10.5 23.5zM196 640q0 13 10.5 23.5t23.5 10.5t23.5 -10.5t10.5 -23.5t-10.5 -23.5t-23.5 -10.5t-23.5 10.5t-10.5 23.5z" />
    <glyph glyph-name="aring" unicode="&#xe5;" 
d="M155 -6q-54 0 -84 33.5t-30 99.5v308q0 67 31 99.5t83 32.5q17 0 35.5 -5.5t33.5 -17t22 -22.5v39h64v-561h-64v39q-14 -21 -40 -33t-51 -12zM176 54q30 0 48 18t18 52v316q0 32 -18 50t-48 18t-48 -18.5t-18 -52.5v-313q0 -34 18 -52t48 -18zM185 639q7 0 12.5 5.5
t5.5 12.5t-5.5 12.5t-12.5 5.5t-12.5 -5.5t-5.5 -12.5t5.5 -12.5t12.5 -5.5zM185 603q-22 0 -38 16t-16 38q0 21 16 37t38 16t38 -16t16 -37q0 -22 -16 -38t-38 -16z" />
    <glyph glyph-name="ae" unicode="&#xe6;" horiz-adv-x="550" 
d="M512 124v-6q0 -65 -31.5 -94.5t-80.5 -29.5q-26 0 -50 11t-39 34v-39h-65v39q-15 -22 -39.5 -33.5t-50.5 -11.5q-54 0 -84.5 33.5t-30.5 99.5v308q0 67 31.5 99.5t83.5 32.5q25 0 51.5 -12t38.5 -33v39h65v-39q10 16 33.5 30.5t55.5 14.5q51 0 81.5 -31.5t30.5 -99.5
v-182h-201v-136q0 -32 19.5 -49.5t47.5 -17.5t47 18.5t19 48.5v6h68zM110 437v-301q0 -43 16.5 -63t50.5 -20t50 20t16 63v287q0 44 -16.5 64.5t-49.5 20.5q-30 0 -48.5 -18.5t-18.5 -52.5zM311 439v-135h133v122q0 42 -17.5 62.5t-48.5 20.5q-30 0 -48.5 -18.5t-18.5 -51.5
z" />
    <glyph glyph-name="ccedilla" unicode="&#xe7;" horiz-adv-x="347" 
d="M310 139v-3q0 -58 -29 -95.5t-80 -44.5l-29 -97h-74l52 97q-51 7 -80 44t-29 96v291q0 64 35.5 102t99.5 38q62 0 98 -38t36 -102v-6h-68v14q0 33 -18.5 52t-47.5 19q-30 0 -48.5 -19t-18.5 -52v-308q0 -34 18.5 -52.5t48.5 -18.5q29 0 47.5 18.5t18.5 52.5v12h68z" />
    <glyph glyph-name="egrave" unicode="&#xe8;" horiz-adv-x="349" 
d="M173 -6q-64 0 -99.5 38t-35.5 104v291q0 64 36 102.5t99 38.5q134 0 134 -159v-155h-201v-130q0 -30 20 -49.5t47 -19.5q29 0 47.5 17t18.5 45v6h68v-6q0 -24 -11.5 -52.5t-43 -49.5t-79.5 -21zM106 435v-131h133v120q0 42 -17.5 62.5t-48.5 20.5q-28 0 -47.5 -19
t-19.5 -53zM207 608h-56l-64 103h74z" />
    <glyph glyph-name="eacute" unicode="&#xe9;" horiz-adv-x="349" 
d="M173 -6q-64 0 -99.5 38t-35.5 104v291q0 64 36 102.5t99 38.5q134 0 134 -159v-155h-201v-130q0 -30 20 -49.5t47 -19.5q29 0 47.5 17t18.5 45v6h68v-6q0 -24 -11.5 -52.5t-43 -49.5t-79.5 -21zM106 435v-131h133v120q0 42 -17.5 62.5t-48.5 20.5q-28 0 -47.5 -19
t-19.5 -53zM196 609h-55l46 102h73z" />
    <glyph glyph-name="ecircumflex" unicode="&#xea;" horiz-adv-x="349" 
d="M173 -6q-64 0 -99.5 38t-35.5 104v291q0 64 36 102.5t99 38.5q134 0 134 -159v-155h-201v-130q0 -30 20 -49.5t47 -19.5q29 0 47.5 17t18.5 45v6h68v-6q0 -24 -11.5 -52.5t-43 -49.5t-79.5 -21zM106 435v-131h133v120q0 42 -17.5 62.5t-48.5 20.5q-28 0 -47.5 -19
t-19.5 -53zM122 607h-57l76 100h64l76 -100h-57l-51 55z" />
    <glyph glyph-name="edieresis" unicode="&#xeb;" horiz-adv-x="349" 
d="M173 -6q-64 0 -99.5 38t-35.5 104v291q0 64 36 102.5t99 38.5q134 0 134 -159v-155h-201v-130q0 -30 20 -49.5t47 -19.5q29 0 47.5 17t18.5 45v6h68v-6q0 -24 -11.5 -52.5t-43 -49.5t-79.5 -21zM106 435v-131h133v120q0 42 -17.5 62.5t-48.5 20.5q-28 0 -47.5 -19
t-19.5 -53zM85 639q0 13 10.5 23.5t23.5 10.5t23.5 -10.5t10.5 -23.5t-10.5 -23.5t-23.5 -10.5t-23.5 10.5t-10.5 23.5zM190 639q0 13 10.5 23.5t23.5 10.5t23.5 -10.5t10.5 -23.5t-10.5 -23.5t-23.5 -10.5t-23.5 10.5t-10.5 23.5z" />
    <glyph glyph-name="igrave" unicode="&#xec;" horiz-adv-x="174" 
d="M120 608h-56l-64 103h74zM120 561v-561h-69v561h69z" />
    <glyph glyph-name="iacute" unicode="&#xed;" horiz-adv-x="171" 
d="M107 609h-55l46 102h73zM120 561v-561h-69v561h69z" />
    <glyph glyph-name="icircumflex" unicode="&#xee;" horiz-adv-x="170" 
d="M120 561v-561h-69v561h69zM34 608h-57l76 100h64l76 -100h-57l-51 55z" />
    <glyph glyph-name="idieresis" unicode="&#xef;" horiz-adv-x="168" 
d="M0 640q0 13 10.5 23.5t23.5 10.5t23.5 -10.5t10.5 -23.5t-10.5 -23.5t-23.5 -10.5t-23.5 10.5t-10.5 23.5zM105 640q0 13 10.5 23.5t23.5 10.5t23.5 -10.5t10.5 -23.5t-10.5 -23.5t-23.5 -10.5t-23.5 10.5t-10.5 23.5zM120 561v-561h-69v561h69z" />
    <glyph glyph-name="eth" unicode="&#xf0;" horiz-adv-x="353" 
d="M191 758l28 -66h57v-31h-44l47 -111q15 -37 23.5 -65t8.5 -68v-279q0 -65 -36.5 -103.5t-98.5 -38.5t-98.5 38.5t-36.5 103.5v286q0 29 11 62t40.5 54t74.5 21q22 0 41 -6l-45 106h-53v31h40l-28 66h69zM176 501q-66 0 -66 -92v-257q0 -94 66 -94t66 94v257q0 92 -66 92z
" />
    <glyph glyph-name="ntilde" unicode="&#xf1;" horiz-adv-x="362" 
d="M116 441v-441h-68v561h64v-40q15 23 40.5 34.5t50.5 11.5q52 0 83 -32.5t31 -99.5v-435h-68v438q0 33 -19 52t-48 19q-28 0 -47 -18.5t-19 -49.5zM283 684v-58q-16 -11 -31 -15.5t-30 -4.5t-40.5 8.5t-37 10t-21 1t-23 -4.5t-29.5 -15v58q13 7 26.5 11.5t30 5t43 -7
t41 -10.5t33.5 2t38 19z" />
    <glyph glyph-name="ograve" unicode="&#xf2;" horiz-adv-x="353" 
d="M176 -6q-64 0 -99.5 38t-35.5 104v291q0 64 35.5 102t99.5 38q62 0 98 -38t36 -102v-291q0 -66 -35.5 -104t-98.5 -38zM176 56q29 0 47.5 18.5t18.5 52.5v308q0 33 -18.5 52t-47.5 19q-30 0 -48.5 -19t-18.5 -52v-308q0 -34 18.5 -52.5t48.5 -18.5zM212 607h-56l-64 103
h74z" />
    <glyph glyph-name="oacute" unicode="&#xf3;" horiz-adv-x="353" 
d="M176 -6q-64 0 -99.5 38t-35.5 104v291q0 64 35.5 102t99.5 38q62 0 98 -38t36 -102v-291q0 -66 -35.5 -104t-98.5 -38zM176 56q29 0 47.5 18.5t18.5 52.5v308q0 33 -18.5 52t-47.5 19q-30 0 -48.5 -19t-18.5 -52v-308q0 -34 18.5 -52.5t48.5 -18.5zM205 609h-55l46 102
h73z" />
    <glyph glyph-name="ocircumflex" unicode="&#xf4;" horiz-adv-x="353" 
d="M176 -6q-64 0 -99.5 38t-35.5 104v291q0 64 35.5 102t99.5 38q62 0 98 -38t36 -102v-291q0 -66 -35.5 -104t-98.5 -38zM176 56q29 0 47.5 18.5t18.5 52.5v308q0 33 -18.5 52t-47.5 19q-30 0 -48.5 -19t-18.5 -52v-308q0 -34 18.5 -52.5t48.5 -18.5zM125 607h-57l76 100
h64l76 -100h-57l-51 55z" />
    <glyph glyph-name="otilde" unicode="&#xf5;" horiz-adv-x="353" 
d="M176 -6q-64 0 -99.5 38t-35.5 104v291q0 64 35.5 102t99.5 38q62 0 98 -38t36 -102v-291q0 -66 -35.5 -104t-98.5 -38zM176 56q29 0 47.5 18.5t18.5 52.5v308q0 33 -18.5 52t-47.5 19q-30 0 -48.5 -19t-18.5 -52v-308q0 -34 18.5 -52.5t48.5 -18.5zM283 682v-58
q-16 -11 -31 -15.5t-30 -4.5t-40.5 8.5t-37 10t-21 1t-23 -4.5t-29.5 -15v58q13 7 26.5 11.5t30 5t43 -7t41 -10.5t33.5 2t38 19z" />
    <glyph glyph-name="odieresis" unicode="&#xf6;" horiz-adv-x="353" 
d="M176 -6q-64 0 -99.5 38t-35.5 104v291q0 64 35.5 102t99.5 38q62 0 98 -38t36 -102v-291q0 -66 -35.5 -104t-98.5 -38zM176 56q29 0 47.5 18.5t18.5 52.5v308q0 33 -18.5 52t-47.5 19q-30 0 -48.5 -19t-18.5 -52v-308q0 -34 18.5 -52.5t48.5 -18.5zM89 639
q0 13 10.5 23.5t23.5 10.5t23.5 -10.5t10.5 -23.5t-10.5 -23.5t-23.5 -10.5t-23.5 10.5t-10.5 23.5zM194 639q0 13 10.5 23.5t23.5 10.5t23.5 -10.5t10.5 -23.5t-10.5 -23.5t-23.5 -10.5t-23.5 10.5t-10.5 23.5z" />
    <glyph glyph-name="divide" unicode="&#xf7;" horiz-adv-x="321" 
d="M198 469q0 -16 -11.5 -27t-27.5 -11t-27 11t-11 27t11 27.5t27 11.5t27.5 -11.5t11.5 -27.5zM198 255q0 -16 -11.5 -27t-27.5 -11t-27 11t-11 27t11 27.5t27 11.5t27.5 -11.5t11.5 -27.5zM285 328h-243v63h243v-63z" />
    <glyph glyph-name="oslash" unicode="&#xf8;" horiz-adv-x="353" 
d="M176 -6q-28 0 -54 8l-13 -54h-31l16 68q-25 18 -39 49t-14 71v291q0 64 35.5 102t99.5 38q25 0 49 -8l16 64h32l-19 -77q27 -18 41.5 -48.5t14.5 -70.5v-291q0 -66 -35.5 -104t-98.5 -38zM176 56q29 0 47.5 18.5t18.5 52.5v308q0 17 -7 34l-98 -403q16 -10 39 -10z
M109 127q0 -19 4 -31l97 401q-15 9 -34 9q-30 0 -48.5 -19t-18.5 -52v-308z" />
    <glyph glyph-name="ugrave" unicode="&#xf9;" horiz-adv-x="354" 
d="M243 120v441h68v-433q0 -61 -36.5 -97.5t-97.5 -36.5q-62 0 -98.5 36.5t-36.5 97.5v433h68v-441q0 -30 19 -47t48 -17q28 0 47 17t19 47zM210 608h-56l-64 103h74z" />
    <glyph glyph-name="uacute" unicode="&#xfa;" horiz-adv-x="354" 
d="M243 120v441h68v-433q0 -61 -36.5 -97.5t-97.5 -36.5q-62 0 -98.5 36.5t-36.5 97.5v433h68v-441q0 -30 19 -47t48 -17q28 0 47 17t19 47zM195 609h-55l46 102h73z" />
    <glyph glyph-name="ucircumflex" unicode="&#xfb;" horiz-adv-x="354" 
d="M243 120v441h68v-433q0 -61 -36.5 -97.5t-97.5 -36.5q-62 0 -98.5 36.5t-36.5 97.5v433h68v-441q0 -30 19 -47t48 -17q28 0 47 17t19 47zM124 607h-57l76 100h64l76 -100h-57l-51 55z" />
    <glyph glyph-name="udieresis" unicode="&#xfc;" horiz-adv-x="354" 
d="M243 120v441h68v-433q0 -61 -36.5 -97.5t-97.5 -36.5q-62 0 -98.5 36.5t-36.5 97.5v433h68v-441q0 -30 19 -47t48 -17q28 0 47 17t19 47zM91 640q0 13 10.5 23.5t23.5 10.5t23.5 -10.5t10.5 -23.5t-10.5 -23.5t-23.5 -10.5t-23.5 10.5t-10.5 23.5zM196 640
q0 13 10.5 23.5t23.5 10.5t23.5 -10.5t10.5 -23.5t-10.5 -23.5t-23.5 -10.5t-23.5 10.5t-10.5 23.5z" />
    <glyph glyph-name="yacute" unicode="&#xfd;" horiz-adv-x="342" 
d="M93 -189l42 196l-118 554h72l81 -419l81 419h73l-161 -750h-70zM197 609h-55l46 102h73z" />
    <glyph glyph-name="thorn" unicode="&#xfe;" horiz-adv-x="362" 
d="M203 566q54 0 84 -33t30 -99v-307q0 -67 -31 -99.5t-83 -32.5q-25 0 -49 11t-38 34v-229h-68v947h68v-236q14 22 38 33t49 11zM182 508q-29 0 -47.5 -18t-18.5 -51v-315q0 -33 18.5 -51.5t47.5 -18.5q30 0 48.5 18.5t18.5 51.5v312q0 35 -18.5 53.5t-48.5 18.5z" />
    <glyph glyph-name="ydieresis" unicode="&#xff;" horiz-adv-x="342" 
d="M93 -189l42 196l-118 554h72l81 -419l81 419h73l-161 -750h-70zM83 638q0 13 10.5 23.5t23.5 10.5t23.5 -10.5t10.5 -23.5t-10.5 -23.5t-23.5 -10.5t-23.5 10.5t-10.5 23.5zM188 638q0 13 10.5 23.5t23.5 10.5t23.5 -10.5t10.5 -23.5t-10.5 -23.5t-23.5 -10.5t-23.5 10.5
t-10.5 23.5z" />
    <glyph glyph-name="Amacron" unicode="&#x100;" horiz-adv-x="386" 
d="M194 576l-66 -356h131zM297 0l-29 158h-150l-30 -158h-72l140 706h75l138 -706h-72zM285 754h-181v51h181v-51z" />
    <glyph glyph-name="amacron" unicode="&#x101;" 
d="M155 -6q-54 0 -84 33.5t-30 99.5v308q0 67 31 99.5t83 32.5q17 0 35.5 -5.5t33.5 -17t22 -22.5v39h64v-561h-64v39q-14 -21 -40 -33t-51 -12zM176 54q30 0 48 18t18 52v316q0 32 -18 50t-48 18t-48 -18.5t-18 -52.5v-313q0 -34 18 -52t48 -18zM272 607h-181v51h181v-51z
" />
    <glyph glyph-name="Abreve" unicode="&#x102;" horiz-adv-x="386" 
d="M194 576l-66 -356h131zM297 0l-29 158h-150l-30 -158h-72l140 706h75l138 -706h-72zM97 842v10h54v-14q0 -19 11 -29t30 -10q16 0 29 10t13 28v15h54v-11q0 -43 -25.5 -67t-70.5 -24q-44 0 -69.5 25.5t-25.5 66.5z" />
    <glyph glyph-name="abreve" unicode="&#x103;" 
d="M155 -6q-54 0 -84 33.5t-30 99.5v308q0 67 31 99.5t83 32.5q17 0 35.5 -5.5t33.5 -17t22 -22.5v39h64v-561h-64v39q-14 -21 -40 -33t-51 -12zM176 54q30 0 48 18t18 52v316q0 32 -18 50t-48 18t-48 -18.5t-18 -52.5v-313q0 -34 18 -52t48 -18zM90 695v10h54v-14
q0 -19 11 -29t30 -10q16 0 29 10t13 28v15h54v-11q0 -43 -25.5 -67t-70.5 -24q-44 0 -69.5 25.5t-25.5 66.5z" />
    <glyph glyph-name="Aogonek" unicode="&#x104;" horiz-adv-x="387" 
d="M370 -83v-57q-30 -6 -52 -6t-44 9.5t-34.5 34.5t-10.5 58q3 60 61 80l-22 122h-150l-30 -158h-72l140 706h75l138 -706q-44 0 -61.5 -11t-17.5 -33q0 -23 11.5 -33t35.5 -10q16 0 33 4zM194 576l-66 -356h131z" />
    <glyph glyph-name="aogonek" unicode="&#x105;" horiz-adv-x="359" 
d="M311 -82v-57q-24 -6 -42 -6q-82 0 -82 71q0 24 16.5 46t42.5 35v32q-11 -16 -30.5 -28t-36.5 -14.5t-24 -2.5q-54 0 -84 33.5t-30 99.5v308q0 67 31 99.5t83 32.5q33 0 57 -14.5t34 -30.5v39h64v-560q-27 -5 -45.5 -20.5t-18.5 -36.5q0 -13 7 -21.5t31 -8.5q12 0 27 4z
M110 437v-292q0 -47 16.5 -69t49.5 -22q67 0 67 91v275q0 88 -67 88q-30 0 -48 -18.5t-18 -52.5z" />
    <glyph glyph-name="Cacute" unicode="&#x106;" horiz-adv-x="369" 
d="M344 532h-71v26q0 40 -22.5 62t-56.5 22t-56 -22t-22 -62v-411q0 -40 22 -62t56 -22t56.5 22t22.5 62v32h71v-30q0 -68 -42 -111.5t-108 -43.5t-107.5 43.5t-41.5 111.5v406q0 69 41.5 112.5t107.5 43.5t108 -43.5t42 -112.5v-23zM209 755h-55l46 102h73z" />
    <glyph glyph-name="cacute" unicode="&#x107;" horiz-adv-x="347" 
d="M310 139v-3q0 -66 -35.5 -104t-98.5 -38q-64 0 -99.5 38t-35.5 104v291q0 64 35.5 102t99.5 38q62 0 98 -38t36 -102v-6h-68v14q0 33 -18.5 52t-47.5 19q-30 0 -48.5 -19t-18.5 -52v-308q0 -34 18.5 -52.5t48.5 -18.5q29 0 47.5 18.5t18.5 52.5v12h68zM198 609h-55
l46 102h73z" />
    <glyph glyph-name="Ccircumflex" unicode="&#x108;" horiz-adv-x="369" 
d="M344 532h-71v26q0 40 -22.5 62t-56.5 22t-56 -22t-22 -62v-411q0 -40 22 -62t56 -22t56.5 22t22.5 62v32h71v-30q0 -68 -42 -111.5t-108 -43.5t-107.5 43.5t-41.5 111.5v406q0 69 41.5 112.5t107.5 43.5t108 -43.5t42 -112.5v-23zM139 754h-57l76 100h64l76 -100h-57
l-51 55z" />
    <glyph glyph-name="ccircumflex" unicode="&#x109;" horiz-adv-x="347" 
d="M310 139v-3q0 -66 -35.5 -104t-98.5 -38q-64 0 -99.5 38t-35.5 104v291q0 64 35.5 102t99.5 38q62 0 98 -38t36 -102v-6h-68v14q0 33 -18.5 52t-47.5 19q-30 0 -48.5 -19t-18.5 -52v-308q0 -34 18.5 -52.5t48.5 -18.5q29 0 47.5 18.5t18.5 52.5v12h68zM124 608h-57
l76 100h64l76 -100h-57l-51 55z" />
    <glyph glyph-name="Cdotaccent" unicode="&#x10a;" horiz-adv-x="369" 
d="M344 532h-71v26q0 40 -22.5 62t-56.5 22t-56 -22t-22 -62v-411q0 -40 22 -62t56 -22t56.5 22t22.5 62v32h71v-30q0 -68 -42 -111.5t-108 -43.5t-107.5 43.5t-41.5 111.5v406q0 69 41.5 112.5t107.5 43.5t108 -43.5t42 -112.5v-23zM238 792q0 -16 -13 -28.5t-29 -12.5
q-18 0 -30.5 12.5t-12.5 28.5q0 18 12.5 30t30.5 12q17 0 29.5 -12.5t12.5 -29.5z" />
    <glyph glyph-name="cdotaccent" unicode="&#x10b;" horiz-adv-x="347" 
d="M310 139v-3q0 -66 -35.5 -104t-98.5 -38q-64 0 -99.5 38t-35.5 104v291q0 64 35.5 102t99.5 38q62 0 98 -38t36 -102v-6h-68v14q0 33 -18.5 52t-47.5 19q-30 0 -48.5 -19t-18.5 -52v-308q0 -34 18.5 -52.5t48.5 -18.5q29 0 47.5 18.5t18.5 52.5v12h68zM218 645
q0 -16 -13 -28.5t-29 -12.5q-18 0 -30.5 12.5t-12.5 28.5q0 18 12.5 30t30.5 12q17 0 29.5 -12.5t12.5 -29.5z" />
    <glyph glyph-name="Ccaron" unicode="&#x10c;" horiz-adv-x="369" 
d="M344 532h-71v26q0 40 -22.5 62t-56.5 22t-56 -22t-22 -62v-411q0 -40 22 -62t56 -22t56.5 22t22.5 62v32h71v-30q0 -68 -42 -111.5t-108 -43.5t-107.5 43.5t-41.5 111.5v406q0 69 41.5 112.5t107.5 43.5t108 -43.5t42 -112.5v-23zM81 853h58l52 -55l50 55h57l-76 -100
h-63z" />
    <glyph glyph-name="ccaron" unicode="&#x10d;" horiz-adv-x="347" 
d="M310 139v-3q0 -66 -35.5 -104t-98.5 -38q-64 0 -99.5 38t-35.5 104v291q0 64 35.5 102t99.5 38q62 0 98 -38t36 -102v-6h-68v14q0 33 -18.5 52t-47.5 19q-30 0 -48.5 -19t-18.5 -52v-308q0 -34 18.5 -52.5t48.5 -18.5q29 0 47.5 18.5t18.5 52.5v12h68zM66 707h58l52 -55
l50 55h57l-76 -100h-63z" />
    <glyph glyph-name="Dcaron" unicode="&#x10e;" horiz-adv-x="393" 
d="M199 705q68 -1 108.5 -44t40.5 -121v-374q0 -50 -16.5 -86t-49.5 -58t-83 -22h-144v705h144zM278 540q0 37 -14.5 59.5t-35 29.5t-37.5 7h-65v-568h65q27 0 48.5 13t30 36.5t8.5 48.5v374zM73 853h58l52 -55l50 55h57l-76 -100h-63z" />
    <glyph glyph-name="dcaron" unicode="&#x10f;" horiz-adv-x="449" 
d="M152 -6q-52 0 -83 32.5t-31 99.5v309q0 67 31 99.5t83 32.5q25 0 50 -11.5t37 -32.5v235h68v-758h-64v39q-7 -11 -22 -22.5t-33.5 -17t-35.5 -5.5zM173 53q30 0 48 18.5t18 52.5v316q0 32 -18 50t-48 18t-48 -18.5t-18 -52.5v-313q0 -34 18 -52.5t48 -18.5zM378 553h-51
l60 204h68z" />
    <glyph glyph-name="Dcroat" unicode="&#x110;" horiz-adv-x="391" 
d="M53 377v328h144q68 0 108.5 -42.5t40.5 -122.5v-374q0 -80 -40.5 -123t-108.5 -43h-144v346h-43v31h43zM190 637h-66v-260h75v-31h-75v-278h66q39 0 62.5 25.5t23.5 91.5v336q0 33 -7.5 60.5t-28 41.5t-50.5 14z" />
    <glyph glyph-name="dcroat" unicode="&#x111;" horiz-adv-x="363" 
d="M155 -6q-52 0 -83 32.5t-31 99.5v308q0 67 31 99.5t83 32.5q16 0 34 -5t32 -16.5t22 -23.5v140h-72v31h72v66h67v-66h45v-31h-45v-661h-64v39q-7 -11 -22 -22.5t-33.5 -17t-35.5 -5.5zM176 53q30 0 48.5 18.5t18.5 52.5v315q0 32 -18.5 50t-48.5 18q-29 0 -47.5 -19
t-18.5 -52v-312q0 -34 18 -52.5t48 -18.5z" />
    <glyph glyph-name="Emacron" unicode="&#x112;" horiz-adv-x="344" 
d="M304 705v-69h-179v-245h131v-63h-131v-259h179v-69h-250v705h250zM267 754h-181v51h181v-51z" />
    <glyph glyph-name="emacron" unicode="&#x113;" horiz-adv-x="349" 
d="M173 -6q-64 0 -99.5 38t-35.5 104v291q0 64 36 102.5t99 38.5q134 0 134 -159v-155h-201v-130q0 -30 20 -49.5t47 -19.5q29 0 47.5 17t18.5 45v6h68v-6q0 -24 -11.5 -52.5t-43 -49.5t-79.5 -21zM106 435v-131h133v120q0 42 -17.5 62.5t-48.5 20.5q-28 0 -47.5 -19
t-19.5 -53zM266 608h-181v51h181v-51z" />
    <glyph glyph-name="Ebreve" unicode="&#x114;" horiz-adv-x="344" 
d="M304 705v-69h-179v-245h131v-63h-131v-259h179v-69h-250v705h250zM80 842v10h54v-14q0 -19 11 -29t30 -10q16 0 29 10t13 28v15h54v-11q0 -43 -25.5 -67t-70.5 -24q-44 0 -69.5 25.5t-25.5 66.5z" />
    <glyph glyph-name="ebreve" unicode="&#x115;" horiz-adv-x="349" 
d="M173 -6q-64 0 -99.5 38t-35.5 104v291q0 64 36 102.5t99 38.5q134 0 134 -159v-155h-201v-130q0 -30 20 -49.5t47 -19.5q29 0 47.5 17t18.5 45v6h68v-6q0 -24 -11.5 -52.5t-43 -49.5t-79.5 -21zM106 435v-131h133v120q0 42 -17.5 62.5t-48.5 20.5q-28 0 -47.5 -19
t-19.5 -53zM76 696v10h54v-14q0 -19 11 -29t30 -10q16 0 29 10t13 28v15h54v-11q0 -43 -25.5 -67t-70.5 -24q-44 0 -69.5 25.5t-25.5 66.5z" />
    <glyph glyph-name="Edotaccent" unicode="&#x116;" horiz-adv-x="344" 
d="M304 705v-69h-179v-245h131v-63h-131v-259h179v-69h-250v705h250zM226 791q0 -16 -13 -28.5t-29 -12.5q-18 0 -30.5 12.5t-12.5 28.5q0 18 12.5 30t30.5 12q17 0 29.5 -12.5t12.5 -29.5z" />
    <glyph glyph-name="edotaccent" unicode="&#x117;" horiz-adv-x="349" 
d="M173 -6q-64 0 -99.5 38t-35.5 104v291q0 64 36 102.5t99 38.5q134 0 134 -159v-155h-201v-130q0 -30 20 -49.5t47 -19.5q29 0 47.5 17t18.5 45v6h68v-6q0 -24 -11.5 -52.5t-43 -49.5t-79.5 -21zM106 435v-131h133v120q0 42 -17.5 62.5t-48.5 20.5q-28 0 -47.5 -19
t-19.5 -53zM215 650q0 -16 -13 -28.5t-29 -12.5q-18 0 -30.5 12.5t-12.5 28.5q0 18 12.5 30t30.5 12q17 0 29.5 -12.5t12.5 -29.5z" />
    <glyph glyph-name="Eogonek" unicode="&#x118;" horiz-adv-x="341" 
d="M305 -83v-57q-30 -6 -52 -6t-44 9.5t-34.5 34.5t-10.5 58q2 27 13 44h-123v705h250v-69h-179v-245h131v-63h-131v-259h179v-69h-17q-62 -2 -62 -44q0 -23 11.5 -33t35.5 -10q16 0 33 4z" />
    <glyph glyph-name="eogonek" unicode="&#x119;" horiz-adv-x="349" 
d="M256 -83v-57q-30 -6 -52 -6t-44 9.5t-34.5 34.5t-10.5 58q2 28 15 44q-42 12 -65.5 48t-23.5 88v291q0 64 36 102.5t99 38.5q134 0 134 -159v-155h-201v-130q0 -30 20 -49.5t47 -19.5q29 0 47.5 17t18.5 45v6h68v-6q0 -32 -14.5 -59t-40.5 -44q-11 -7 -45 -18t-34 -40
q0 -23 11.5 -33t35.5 -10q16 0 33 4zM109 435v-131h133v120q0 42 -17.5 62.5t-48.5 20.5q-28 0 -47.5 -19t-19.5 -53z" />
    <glyph glyph-name="Ecaron" unicode="&#x11a;" horiz-adv-x="344" 
d="M304 705v-69h-179v-245h131v-63h-131v-259h179v-69h-250v705h250zM70 853h58l52 -55l50 55h57l-76 -100h-63z" />
    <glyph glyph-name="ecaron" unicode="&#x11b;" horiz-adv-x="349" 
d="M173 -6q-64 0 -99.5 38t-35.5 104v291q0 64 36 102.5t99 38.5q134 0 134 -159v-155h-201v-130q0 -30 20 -49.5t47 -19.5q29 0 47.5 17t18.5 45v6h68v-6q0 -24 -11.5 -52.5t-43 -49.5t-79.5 -21zM106 435v-131h133v120q0 42 -17.5 62.5t-48.5 20.5q-28 0 -47.5 -19
t-19.5 -53zM64 706h58l52 -55l50 55h57l-76 -100h-63z" />
    <glyph glyph-name="Gcircumflex" unicode="&#x11c;" horiz-adv-x="385" 
d="M192 325h151v-177q0 -68 -41.5 -111t-107.5 -43t-107.5 43t-41.5 111v407q0 69 41.5 112.5t107.5 43.5q64 0 106 -43t43 -111h-71q0 40 -22 62t-56 22t-56 -21.5t-22 -61.5v-412q0 -21 8.5 -41t28 -31.5t41.5 -11.5q34 0 56 22t22 62v116h-80v63zM143 747h-57l76 100h64
l76 -100h-57l-51 55z" />
    <glyph glyph-name="gcircumflex" unicode="&#x11d;" 
d="M110 438v-293q0 -47 16.5 -69t49.5 -22q34 0 50 21.5t16 66.5v279q0 88 -66 88q-30 0 -48 -18.5t-18 -52.5zM242 -69v108q-14 -22 -38 -33.5t-49 -11.5q-54 0 -84 33.5t-30 99.5v308q0 63 29.5 96.5t78.5 33.5q34 0 60.5 -13t36.5 -30v39h64v-616q0 -31 -8 -64
t-38.5 -53.5t-86.5 -20.5q-37 0 -69 12t-47 40.5t-15 61.5h66q0 -26 16.5 -42.5t48.5 -16.5q35 0 50 17t15 52zM130 613h-57l76 100h64l76 -100h-57l-51 55z" />
    <glyph glyph-name="Gbreve" unicode="&#x11e;" horiz-adv-x="385" 
d="M192 325h151v-177q0 -68 -41.5 -111t-107.5 -43t-107.5 43t-41.5 111v407q0 69 41.5 112.5t107.5 43.5q64 0 106 -43t43 -111h-71q0 40 -22 62t-56 22t-56 -21.5t-22 -61.5v-412q0 -21 8.5 -41t28 -31.5t41.5 -11.5q34 0 56 22t22 62v116h-80v63zM96 842v10h54v-14
q0 -19 11 -29t30 -10q16 0 29 10t13 28v15h54v-11q0 -43 -25.5 -67t-70.5 -24q-44 0 -69.5 25.5t-25.5 66.5z" />
    <glyph glyph-name="gbreve" unicode="&#x11f;" 
d="M110 438v-293q0 -47 16.5 -69t49.5 -22q34 0 50 21.5t16 66.5v279q0 88 -66 88q-30 0 -48 -18.5t-18 -52.5zM242 -69v108q-14 -22 -38 -33.5t-49 -11.5q-54 0 -84 33.5t-30 99.5v308q0 63 29.5 96.5t78.5 33.5q34 0 60.5 -13t36.5 -30v39h64v-616q0 -31 -8 -64
t-38.5 -53.5t-86.5 -20.5q-37 0 -69 12t-47 40.5t-15 61.5h66q0 -26 16.5 -42.5t48.5 -16.5q35 0 50 17t15 52zM86 696v10h54v-14q0 -19 11 -29t30 -10q16 0 29 10t13 28v15h54v-11q0 -43 -25.5 -67t-70.5 -24q-44 0 -69.5 25.5t-25.5 66.5z" />
    <glyph glyph-name="Gdotaccent" unicode="&#x120;" horiz-adv-x="385" 
d="M192 325h151v-177q0 -68 -41.5 -111t-107.5 -43t-107.5 43t-41.5 111v407q0 69 41.5 112.5t107.5 43.5q64 0 106 -43t43 -111h-71q0 40 -22 62t-56 22t-56 -21.5t-22 -61.5v-412q0 -21 8.5 -41t28 -31.5t41.5 -11.5q34 0 56 22t22 62v116h-80v63zM237 791
q0 -16 -13 -28.5t-29 -12.5q-18 0 -30.5 12.5t-12.5 28.5q0 18 12.5 30t30.5 12q17 0 29.5 -12.5t12.5 -29.5z" />
    <glyph glyph-name="gdotaccent" unicode="&#x121;" 
d="M110 438v-293q0 -47 16.5 -69t49.5 -22q34 0 50 21.5t16 66.5v279q0 88 -66 88q-30 0 -48 -18.5t-18 -52.5zM242 -69v108q-14 -22 -38 -33.5t-49 -11.5q-54 0 -84 33.5t-30 99.5v308q0 63 29.5 96.5t78.5 33.5q34 0 60.5 -13t36.5 -30v39h64v-616q0 -31 -8 -64
t-38.5 -53.5t-86.5 -20.5q-37 0 -69 12t-47 40.5t-15 61.5h66q0 -26 16.5 -42.5t48.5 -16.5q35 0 50 17t15 52zM218 651q0 -16 -13 -28.5t-29 -12.5q-18 0 -30.5 12.5t-12.5 28.5q0 18 12.5 30t30.5 12q17 0 29.5 -12.5t12.5 -29.5z" />
    <glyph glyph-name="Gcommaaccent" unicode="&#x122;" horiz-adv-x="385" 
d="M192 325h151v-177q0 -68 -41.5 -111t-107.5 -43t-107.5 43t-41.5 111v407q0 69 41.5 112.5t107.5 43.5q64 0 106 -43t43 -111h-71q0 40 -22 62t-56 22t-56 -21.5t-22 -61.5v-412q0 -21 8.5 -41t28 -31.5t41.5 -11.5q34 0 56 22t22 62v116h-80v63zM172 -176h-44l34 133h74
z" />
    <glyph glyph-name="gcommaaccent" unicode="&#x123;" 
d="M201 739h45l-35 -133h-73zM110 440v-293q0 -47 16.5 -69t49.5 -22q34 0 50 21.5t16 66.5v279q0 88 -66 88q-30 0 -48 -18.5t-18 -52.5zM242 -67v108q-14 -22 -38 -33.5t-49 -11.5q-54 0 -84 33.5t-30 99.5v308q0 63 29.5 96.5t78.5 33.5q34 0 60.5 -13t36.5 -30v39h64
v-616q0 -31 -8 -64t-38.5 -53.5t-86.5 -20.5q-37 0 -69 12t-47 40.5t-15 61.5h66q0 -26 16.5 -42.5t48.5 -16.5q35 0 50 17t15 52z" />
    <glyph glyph-name="Hcircumflex" unicode="&#x124;" horiz-adv-x="400" 
d="M126 328v-328h-72v705h72v-314h147v314h71v-705h-71v328h-147zM147 754h-57l76 100h64l76 -100h-57l-51 55z" />
    <glyph glyph-name="hcircumflex" unicode="&#x125;" horiz-adv-x="362" 
d="M116 440v-440h-68v758h68v-236q12 20 35.5 32.5t53.5 12.5q54 0 83 -32t29 -100v-435h-68v437q0 34 -18.5 52.5t-48.5 18.5q-29 0 -47.5 -18t-18.5 -50zM121 787h-57l76 100h64l76 -100h-57l-51 55z" />
    <glyph glyph-name="Hbar" unicode="&#x126;" horiz-adv-x="399" 
d="M126 327v-327h-72v533h-43v31h43v141h72v-141h147v141h71v-141h43v-31h-43v-533h-71v327h-147zM126 391h147v142h-147v-142z" />
    <glyph glyph-name="hbar" unicode="&#x127;" horiz-adv-x="363" 
d="M117 661v-139q27 45 90 45q54 0 83 -32t29 -100v-435h-69v437q0 32 -20 51.5t-46 19.5q-29 0 -48 -18t-19 -50v-440h-68v661h-39v31h39v66h68v-66h71v-31h-71z" />
    <glyph glyph-name="Itilde" unicode="&#x128;" horiz-adv-x="176" 
d="M125 705v-705h-71v705h71zM195 829v-58q-16 -11 -31 -15.5t-30 -4.5t-40.5 8.5t-37 10t-21 1t-23 -4.5t-29.5 -15v58q13 7 26.5 11.5t30 5t43 -7t41 -10.5t33.5 2t38 19z" />
    <glyph glyph-name="itilde" unicode="&#x129;" horiz-adv-x="169" 
d="M191 683v-58q-16 -11 -31 -15.5t-30 -4.5t-40.5 8.5t-37 10t-21 1t-23 -4.5t-29.5 -15v58q13 7 26.5 11.5t30 5t43 -7t41 -10.5t33.5 2t38 19zM120 561v-561h-69v561h69z" />
    <glyph glyph-name="Imacron" unicode="&#x12a;" horiz-adv-x="178" 
d="M125 705v-705h-71v705h71zM180 754h-181v51h181v-51z" />
    <glyph glyph-name="imacron" unicode="&#x12b;" horiz-adv-x="169" 
d="M175 607h-181v51h181v-51zM120 561v-561h-69v561h69z" />
    <glyph glyph-name="Ibreve" unicode="&#x12c;" horiz-adv-x="176" 
d="M125 705v-705h-71v705h71zM-5 842v10h54v-14q0 -19 11 -29t30 -10q16 0 29 10t13 28v15h54v-11q0 -43 -25.5 -67t-70.5 -24q-44 0 -69.5 25.5t-25.5 66.5z" />
    <glyph glyph-name="ibreve" unicode="&#x12d;" horiz-adv-x="170" 
d="M-10 696v10h54v-14q0 -19 11 -29t30 -10q16 0 29 10t13 28v15h54v-11q0 -43 -25.5 -67t-70.5 -24q-44 0 -69.5 25.5t-25.5 66.5zM120 561v-561h-69v561h69z" />
    <glyph glyph-name="Iogonek" unicode="&#x12e;" horiz-adv-x="180" 
d="M126 -83v-57q-30 -6 -52 -6t-44 9.5t-34.5 34.5t-10.5 58q3 62 69 83v666h71v-705h-17q-62 -2 -62 -44q0 -23 11.5 -33t35.5 -10q16 0 33 4z" />
    <glyph glyph-name="iogonek" unicode="&#x12f;" horiz-adv-x="170" 
d="M118 -83v-57q-30 -6 -52 -6t-44 9.5t-34.5 34.5t-10.5 58q1 32 20.5 53.5t51.5 30.5v521h68v-561h-17q-62 -2 -62 -44q0 -23 11.5 -33t35.5 -10q16 0 33 4zM126 659q0 -16 -13 -28.5t-29 -12.5q-18 0 -30.5 12.5t-12.5 28.5q0 18 12.5 30t30.5 12q17 0 29.5 -12.5
t12.5 -29.5z" />
    <glyph glyph-name="Idotaccent" unicode="&#x130;" horiz-adv-x="178" 
d="M125 705v-705h-71v705h71zM131 791q0 -16 -13 -28.5t-29 -12.5q-18 0 -30.5 12.5t-12.5 28.5q0 18 12.5 30t30.5 12q17 0 29.5 -12.5t12.5 -29.5z" />
    <glyph glyph-name="dotlessi" unicode="&#x131;" horiz-adv-x="172" 
d="M120 561v-561h-69v561h69z" />
    <glyph glyph-name="Jcircumflex" unicode="&#x134;" horiz-adv-x="367" 
d="M246 146v559h72v-557q0 -69 -40 -112t-105 -43t-104.5 43t-39.5 112v37h71v-39q0 -41 20 -62.5t53 -21.5t53 21.5t20 62.5zM145 754h-57l76 100h64l76 -100h-57l-51 55z" />
    <glyph glyph-name="jcircumflex" unicode="&#x135;" horiz-adv-x="163" 
d="M-8 -191v62q31 0 43.5 16t12.5 55v619h68v-606q0 -77 -28 -111.5t-96 -34.5zM30 615h-57l76 100h64l76 -100h-57l-51 55z" />
    <glyph glyph-name="Kcommaaccent" unicode="&#x136;" horiz-adv-x="378" 
d="M220 362l136 -362h-79l-116 328h-35v-328h-72v705h72v-313h35l116 313h79zM175 -176h-44l34 133h74z" />
    <glyph glyph-name="kcommaaccent" unicode="&#x137;" horiz-adv-x="341" 
d="M202 288l119 -288h-75l-102 258h-28v-258h-68v758h68v-442h28l102 245h74zM153 -176h-44l34 133h74z" />
    <glyph glyph-name="kgreenlandic" unicode="&#x138;" horiz-adv-x="341" 
d="M202 288l119 -288h-75l-102 258h-28v-258h-68v561h68v-245h28l102 245h74z" />
    <glyph glyph-name="Lacute" unicode="&#x139;" horiz-adv-x="314" 
d="M290 69v-69h-236v705h72v-636h164zM117 749h-55l46 102h73z" />
    <glyph glyph-name="lacute" unicode="&#x13a;" horiz-adv-x="170" 
d="M116 758v-758h-68v758h68zM108 796h-55l46 102h73z" />
    <glyph glyph-name="Lcommaaccent" unicode="&#x13b;" horiz-adv-x="314" 
d="M290 69v-69h-236v705h72v-636h164zM150 -176h-44l34 133h74z" />
    <glyph glyph-name="lcommaaccent" unicode="&#x13c;" horiz-adv-x="167" 
d="M116 758v-758h-68v758h68zM56 -176h-44l34 133h74z" />
    <glyph glyph-name="Lcaron" unicode="&#x13d;" horiz-adv-x="343" 
d="M290 69v-69h-236v705h72v-636h164zM217 496h-55l64 209h74z" />
    <glyph glyph-name="lcaron" unicode="&#x13e;" horiz-adv-x="266" 
d="M116 758v-758h-68v758h68zM192 548h-51l60 210h68z" />
    <glyph glyph-name="Ldot" unicode="&#x13f;" horiz-adv-x="324" 
d="M290 69v-69h-236v705h72v-636h164zM166 342q0 15 11.5 26t26.5 11t26.5 -11t11.5 -26q0 -16 -11 -27t-27 -11t-27 11t-11 27z" />
    <glyph glyph-name="ldot" unicode="&#x140;" horiz-adv-x="216" 
d="M116 758v-758h-68v758h68zM147 341q0 13 10.5 23.5t23.5 10.5q15 0 25 -11t10 -23q0 -13 -10 -23.5t-25 -10.5q-13 0 -23.5 10.5t-10.5 23.5z" />
    <glyph glyph-name="Lslash" unicode="&#x141;" horiz-adv-x="317" 
d="M293 69v-69h-235v314l-46 -15v55l46 15v336h71v-312l47 16v-55l-47 -16v-269h164z" />
    <glyph glyph-name="lslash" unicode="&#x142;" horiz-adv-x="179" 
d="M12 354l44 15v389h69v-366l44 15v-55l-44 -15v-337h-69v314l-44 -15v55z" />
    <glyph glyph-name="Nacute" unicode="&#x143;" horiz-adv-x="411" 
d="M355 705v-705h-66l-163 490v-490h-71v705h65l164 -498v498h71zM222 754h-55l46 102h73z" />
    <glyph glyph-name="nacute" unicode="&#x144;" horiz-adv-x="362" 
d="M116 441v-441h-68v561h64v-40q15 23 40.5 34.5t50.5 11.5q52 0 83 -32.5t31 -99.5v-435h-68v438q0 33 -19 52t-48 19q-28 0 -47 -18.5t-19 -49.5zM211 609h-55l46 102h73z" />
    <glyph glyph-name="Ncommaaccent" unicode="&#x145;" horiz-adv-x="411" 
d="M355 705v-705h-66l-163 490v-490h-71v705h65l164 -498v498h71zM195 -176h-44l34 133h74z" />
    <glyph glyph-name="ncommaaccent" unicode="&#x146;" horiz-adv-x="362" 
d="M116 441v-441h-68v561h64v-40q15 23 40.5 34.5t50.5 11.5q52 0 83 -32.5t31 -99.5v-435h-68v438q0 33 -19 52t-48 19q-28 0 -47 -18.5t-19 -49.5zM164 -176h-44l34 133h74z" />
    <glyph glyph-name="Ncaron" unicode="&#x147;" horiz-adv-x="411" 
d="M355 705v-705h-66l-163 490v-490h-71v705h65l164 -498v498h71zM92 853h58l52 -55l50 55h57l-76 -100h-63z" />
    <glyph glyph-name="ncaron" unicode="&#x148;" horiz-adv-x="362" 
d="M116 441v-441h-68v561h64v-40q15 23 40.5 34.5t50.5 11.5q52 0 83 -32.5t31 -99.5v-435h-68v438q0 33 -19 52t-48 19q-28 0 -47 -18.5t-19 -49.5zM72 707h58l52 -55l50 55h57l-76 -100h-63z" />
    <glyph glyph-name="Eng" unicode="&#x14a;" horiz-adv-x="411" 
d="M355 705v-757q0 -63 -31 -103t-93 -36v62q30 0 43.5 15t13.5 52v73l-162 479v-490h-71v705h65l164 -498v498h71z" />
    <glyph glyph-name="eng" unicode="&#x14b;" horiz-adv-x="362" 
d="M193 -191v62q31 0 43.5 16t12.5 55v496q0 33 -18.5 52t-48.5 19q-28 0 -47 -18.5t-19 -49.5v-441h-68v561h64v-40q15 23 40.5 34.5t50.5 11.5q52 0 83 -32.5t31 -99.5v-480q0 -77 -27.5 -111.5t-96.5 -34.5z" />
    <glyph glyph-name="Omacron" unicode="&#x14c;" horiz-adv-x="389" 
d="M194 -6q-66 0 -107.5 43.5t-41.5 111.5v406q0 69 41.5 112.5t107.5 43.5t108 -43.5t42 -112.5v-406q0 -68 -42 -111.5t-108 -43.5zM194 63q34 0 56.5 22t22.5 62v411q0 40 -22.5 62t-56.5 22t-56 -22t-22 -62v-411q0 -40 22 -62t56 -22zM286 754h-181v51h181v-51z" />
    <glyph glyph-name="omacron" unicode="&#x14d;" horiz-adv-x="353" 
d="M176 -6q-64 0 -99.5 38t-35.5 104v291q0 64 35.5 102t99.5 38q62 0 98 -38t36 -102v-291q0 -66 -35.5 -104t-98.5 -38zM176 56q29 0 47.5 18.5t18.5 52.5v308q0 33 -18.5 52t-47.5 19q-30 0 -48.5 -19t-18.5 -52v-308q0 -34 18.5 -52.5t48.5 -18.5zM267 607h-181v51h181
v-51z" />
    <glyph glyph-name="Obreve" unicode="&#x14e;" horiz-adv-x="389" 
d="M194 -6q-66 0 -107.5 43.5t-41.5 111.5v406q0 69 41.5 112.5t107.5 43.5t108 -43.5t42 -112.5v-406q0 -68 -42 -111.5t-108 -43.5zM194 63q34 0 56.5 22t22.5 62v411q0 40 -22.5 62t-56.5 22t-56 -22t-22 -62v-411q0 -40 22 -62t56 -22zM97 843v10h54v-14q0 -19 11 -29
t30 -10q16 0 29 10t13 28v15h54v-11q0 -43 -25.5 -67t-70.5 -24q-44 0 -69.5 25.5t-25.5 66.5z" />
    <glyph glyph-name="obreve" unicode="&#x14f;" horiz-adv-x="353" 
d="M176 -6q-64 0 -99.5 38t-35.5 104v291q0 64 35.5 102t99.5 38q62 0 98 -38t36 -102v-291q0 -66 -35.5 -104t-98.5 -38zM176 56q29 0 47.5 18.5t18.5 52.5v308q0 33 -18.5 52t-47.5 19q-30 0 -48.5 -19t-18.5 -52v-308q0 -34 18.5 -52.5t48.5 -18.5zM81 695v10h54v-14
q0 -19 11 -29t30 -10q16 0 29 10t13 28v15h54v-11q0 -43 -25.5 -67t-70.5 -24q-44 0 -69.5 25.5t-25.5 66.5z" />
    <glyph glyph-name="Ohungarumlaut" unicode="&#x150;" horiz-adv-x="389" 
d="M194 -6q-66 0 -107.5 43.5t-41.5 111.5v406q0 69 41.5 112.5t107.5 43.5t108 -43.5t42 -112.5v-406q0 -68 -42 -111.5t-108 -43.5zM194 63q34 0 56.5 22t22.5 62v411q0 40 -22.5 62t-56.5 22t-56 -22t-22 -62v-411q0 -40 22 -62t56 -22zM165 754h-44l40 99h59zM251 754
h-44l40 99h58z" />
    <glyph glyph-name="ohungarumlaut" unicode="&#x151;" horiz-adv-x="353" 
d="M176 -6q-64 0 -99.5 38t-35.5 104v291q0 64 35.5 102t99.5 38q62 0 98 -38t36 -102v-291q0 -66 -35.5 -104t-98.5 -38zM176 56q29 0 47.5 18.5t18.5 52.5v308q0 33 -18.5 52t-47.5 19q-30 0 -48.5 -19t-18.5 -52v-308q0 -34 18.5 -52.5t48.5 -18.5zM151 610h-44l40 99h59
zM237 610h-44l40 99h58z" />
    <glyph glyph-name="OE" unicode="&#x152;" horiz-adv-x="561" 
d="M519 705v-69h-178v-245h130v-63h-130v-259h178v-69h-249v30q-8 -13 -29.5 -24t-55.5 -11q-62 0 -102.5 43t-40.5 109v414q0 64 37.5 105t95.5 41q61 0 95 -31v29h249zM192 643q-25 0 -44.5 -12t-27 -32t-7.5 -40v-414q0 -40 21.5 -62t57.5 -22q35 0 56.5 22t21.5 64v414
q0 21 -8 41t-27 30.5t-43 10.5z" />
    <glyph glyph-name="oe" unicode="&#x153;" horiz-adv-x="555" 
d="M444 118v6h68v-6q0 -32 -13 -59t-42 -46t-74 -19q-38 0 -66.5 16.5t-39.5 44.5q-12 -28 -40.5 -44.5t-65.5 -16.5q-63 0 -96.5 37.5t-33.5 104.5v267q0 89 34 126t96 37q38 0 66 -17t39 -46q12 29 41 46.5t67 17.5q69 0 98.5 -40t29.5 -119v-154h-201v-118
q0 -40 18.5 -60.5t48.5 -20.5q29 0 47.5 18t18.5 45zM176 508q-66 0 -66 -89v-273q0 -90 66 -90q33 0 50 21t17 66v278q0 87 -67 87zM311 441v-24v-113h133v118q0 44 -17 66t-49 22q-30 0 -48.5 -18t-18.5 -51z" />
    <glyph glyph-name="Racute" unicode="&#x154;" horiz-adv-x="383" 
d="M126 0h-72v705h137q68 0 108.5 -41.5t40.5 -117.5v-171q0 -116 -90 -148l93 -227h-79l-82 209h-56v-209zM183 636h-57v-359h57q41 0 64 23.5t23 89.5v156q0 23 -8.5 45t-29.5 33.5t-49 11.5zM192 754h-55l46 102h73z" />
    <glyph glyph-name="racute" unicode="&#x155;" horiz-adv-x="242" 
d="M214 566v-68l-12 1q-42 0 -64 -23t-22 -66v-410h-68v561h64v-40q29 46 90 46zM146 609h-55l46 102h73z" />
    <glyph glyph-name="Rcommaaccent" unicode="&#x156;" horiz-adv-x="383" 
d="M126 0h-72v705h137q68 0 108.5 -41.5t40.5 -117.5v-171q0 -116 -90 -148l93 -227h-79l-82 209h-56v-209zM183 636h-57v-359h57q41 0 64 23.5t23 89.5v156q0 23 -8.5 45t-29.5 33.5t-49 11.5zM174 -176h-44l34 133h74z" />
    <glyph glyph-name="rcommaaccent" unicode="&#x157;" horiz-adv-x="242" 
d="M214 566v-68l-12 1q-42 0 -64 -23t-22 -66v-410h-68v561h64v-40q29 46 90 46zM58 -176h-44l34 133h74z" />
    <glyph glyph-name="Rcaron" unicode="&#x158;" horiz-adv-x="383" 
d="M126 0h-72v705h137q68 0 108.5 -41.5t40.5 -117.5v-171q0 -116 -90 -148l93 -227h-79l-82 209h-56v-209zM183 636h-57v-359h57q41 0 64 23.5t23 89.5v156q0 23 -8.5 45t-29.5 33.5t-49 11.5zM66 853h58l52 -55l50 55h57l-76 -100h-63z" />
    <glyph glyph-name="rcaron" unicode="&#x159;" horiz-adv-x="243" 
d="M214 566v-68l-12 1q-42 0 -64 -23t-22 -66v-410h-68v561h64v-40q29 46 90 46zM13 708h58l52 -55l50 55h57l-76 -100h-63z" />
    <glyph glyph-name="Sacute" unicode="&#x15a;" horiz-adv-x="338" 
d="M170 712q63 0 103.5 -40.5t40.5 -111.5h-70q0 20 -7.5 40.5t-26 32t-41.5 11.5q-31 0 -52 -19.5t-21 -52.5q0 -43 39 -101l124 -179q24 -35 41.5 -72t17.5 -83q0 -64 -40.5 -104t-106.5 -40q-67 0 -109 41.5t-42 115.5h71q0 -22 8 -43.5t28 -33t45 -11.5q33 0 54 21.5
t21 56.5q0 25 -8.5 48.5t-33.5 58.5l-123 179q-56 82 -56 146q0 23 7.5 47.5t27.5 48t51 34t58 10.5zM183 754h-55l46 102h73z" />
    <glyph glyph-name="sacute" unicode="&#x15b;" horiz-adv-x="336" 
d="M164 568q65 0 99.5 -33t34.5 -97h-67q0 34 -18 51.5t-44 17.5q-28 0 -45.5 -17.5t-17.5 -44.5q0 -15 7.5 -33.5t21.5 -34.5l111 -128q25 -29 40.5 -59.5t15.5 -72.5q0 -34 -18 -63t-47 -44.5t-68 -15.5q-64 0 -100.5 35t-36.5 96h68q0 -34 19 -52t50 -18q29 0 47 19
t18 45q0 21 -5.5 37.5t-25.5 39.5l-110 128q-54 62 -54 122q0 22 10.5 50t40.5 50t74 22zM191 614h-55l46 102h73z" />
    <glyph glyph-name="Scircumflex" unicode="&#x15c;" horiz-adv-x="338" 
d="M170 712q63 0 103.5 -40.5t40.5 -111.5h-70q0 20 -7.5 40.5t-26 32t-41.5 11.5q-31 0 -52 -19.5t-21 -52.5q0 -43 39 -101l124 -179q24 -35 41.5 -72t17.5 -83q0 -64 -40.5 -104t-106.5 -40q-67 0 -109 41.5t-42 115.5h71q0 -22 8 -43.5t28 -33t45 -11.5q33 0 54 21.5
t21 56.5q0 25 -8.5 48.5t-33.5 58.5l-123 179q-56 82 -56 146q0 23 7.5 47.5t27.5 48t51 34t58 10.5zM118 754h-57l76 100h64l76 -100h-57l-51 55z" />
    <glyph glyph-name="scircumflex" unicode="&#x15d;" horiz-adv-x="336" 
d="M164 568q65 0 99.5 -33t34.5 -97h-67q0 34 -18 51.5t-44 17.5q-28 0 -45.5 -17.5t-17.5 -44.5q0 -15 7.5 -33.5t21.5 -34.5l111 -128q25 -29 40.5 -59.5t15.5 -72.5q0 -34 -18 -63t-47 -44.5t-68 -15.5q-64 0 -100.5 35t-36.5 96h68q0 -34 19 -52t50 -18q29 0 47 19
t18 45q0 21 -5.5 37.5t-25.5 39.5l-110 128q-54 62 -54 122q0 22 10.5 50t40.5 50t74 22zM117 609h-57l76 100h64l76 -100h-57l-51 55z" />
    <glyph glyph-name="Scedilla" unicode="&#x15e;" horiz-adv-x="338" 
d="M170 712q63 0 103.5 -40.5t40.5 -111.5h-70q0 20 -7.5 40.5t-26 32t-41.5 11.5q-31 0 -52 -19.5t-21 -52.5q0 -43 39 -101l124 -179q24 -35 41.5 -72t17.5 -83q0 -57 -32.5 -95.5t-86.5 -46.5l-31 -112h-76l54 112q-55 7 -90.5 46.5t-35.5 108.5h71q0 -22 8 -43.5t28 -33
t45 -11.5q33 0 54 21.5t21 56.5q0 25 -8.5 48.5t-33.5 58.5l-123 179q-56 82 -56 146q0 23 7.5 47.5t27.5 48t51 34t58 10.5z" />
    <glyph glyph-name="scedilla" unicode="&#x15f;" horiz-adv-x="336" 
d="M164 567q65 0 99.5 -33t34.5 -97h-67q0 34 -18 51.5t-44 17.5q-28 0 -45.5 -17.5t-17.5 -44.5q0 -15 7.5 -33.5t21.5 -34.5l111 -129q25 -29 40.5 -59.5t15.5 -72.5q0 -31 -16 -60t-42 -43.5t-51 -17.5l-27 -95h-74l50 95q-51 7 -80.5 41.5t-29.5 87.5h68q0 -34 19 -52
t50 -18q29 0 47 19t18 45q0 21 -5.5 37.5t-25.5 39.5l-110 129q-54 62 -54 122q0 22 10.5 50t40.5 50t74 22z" />
    <glyph glyph-name="Scaron" unicode="&#x160;" horiz-adv-x="338" 
d="M170 712q63 0 103.5 -40.5t40.5 -111.5h-70q0 20 -7.5 40.5t-26 32t-41.5 11.5q-31 0 -52 -19.5t-21 -52.5q0 -43 39 -101l124 -179q24 -35 41.5 -72t17.5 -83q0 -64 -40.5 -104t-106.5 -40q-67 0 -109 41.5t-42 115.5h71q0 -22 8 -43.5t28 -33t45 -11.5q33 0 54 21.5
t21 56.5q0 25 -8.5 48.5t-33.5 58.5l-123 179q-56 82 -56 146q0 23 7.5 47.5t27.5 48t51 34t58 10.5zM59 853h58l52 -55l50 55h57l-76 -100h-63z" />
    <glyph glyph-name="scaron" unicode="&#x161;" horiz-adv-x="336" 
d="M164 568q65 0 99.5 -33t34.5 -97h-67q0 34 -18 51.5t-44 17.5q-28 0 -45.5 -17.5t-17.5 -44.5q0 -15 7.5 -33.5t21.5 -34.5l111 -128q25 -29 40.5 -59.5t15.5 -72.5q0 -34 -18 -63t-47 -44.5t-68 -15.5q-64 0 -100.5 35t-36.5 96h68q0 -34 19 -52t50 -18q29 0 47 19
t18 45q0 21 -5.5 37.5t-25.5 39.5l-110 128q-54 62 -54 122q0 22 10.5 50t40.5 50t74 22zM57 708h58l52 -55l50 55h57l-76 -100h-63z" />
    <glyph glyph-name="Tcommaaccent" unicode="&#x162;" horiz-adv-x="331" 
d="M304 705v-69h-104v-636h-72v636h-102v69h278zM140 -176h-44l34 133h74z" />
    <glyph glyph-name="tcommaaccent" unicode="&#x163;" horiz-adv-x="235" 
d="M21 500v58q33 0 44.5 17.5t11.5 71.5h50v-86h82v-61h-82v-375q0 -40 15 -54.5t51 -14.5l16 1v-60l-30 -2q-61 0 -90.5 29t-29.5 108v368h-38zM120 -179h-44l34 133h74z" />
    <glyph glyph-name="Tcaron" unicode="&#x164;" horiz-adv-x="331" 
d="M304 705v-69h-104v-636h-72v636h-102v69h278zM56 853h58l52 -55l50 55h57l-76 -100h-63z" />
    <glyph glyph-name="tcaron" unicode="&#x165;" horiz-adv-x="250" 
d="M207 604h-42l38 122h56zM21 500v58q33 0 44.5 17.5t11.5 71.5h50v-86h82v-61h-82v-375q0 -40 15 -54.5t51 -14.5l16 1v-60l-30 -2q-61 0 -90.5 29t-29.5 108v368h-38z" />
    <glyph glyph-name="Tbar" unicode="&#x166;" horiz-adv-x="331" 
d="M304 705v-69h-104v-265h51v-23h-51v-348h-72v348h-52v23h52v265h-102v69h278z" />
    <glyph glyph-name="tbar" unicode="&#x167;" horiz-adv-x="238" 
d="M127 276v-150q0 -37 12.5 -53.5t46.5 -16.5l22 2l1 -61q-14 -3 -28 -3q-38 0 -65 11.5t-42 42t-15 101.5v127h-38v31h38v193h-38v58q33 0 44.5 17.5t11.5 71.5h50v-86h82v-61h-82v-193h79v-31h-79z" />
    <glyph glyph-name="Utilde" unicode="&#x168;" horiz-adv-x="397" 
d="M276 146v559h71v-556q0 -68 -42 -111.5t-107 -43.5q-66 0 -108 43.5t-42 111.5v556h71v-559q0 -21 8.5 -41t28.5 -31t42 -11q33 0 55.5 21.5t22.5 61.5zM302 829v-58q-16 -11 -31 -15.5t-30 -4.5t-40.5 8.5t-37 10t-21 1t-23 -4.5t-29.5 -15v58q13 7 26.5 11.5t30 5
t43 -7t41 -10.5t33.5 2t38 19z" />
    <glyph glyph-name="utilde" unicode="&#x169;" horiz-adv-x="354" 
d="M243 120v441h68v-433q0 -61 -36.5 -97.5t-97.5 -36.5q-62 0 -98.5 36.5t-36.5 97.5v433h68v-441q0 -30 19 -47t48 -17q28 0 47 17t19 47zM285 682v-58q-16 -11 -31 -15.5t-30 -4.5t-40.5 8.5t-37 10t-21 1t-23 -4.5t-29.5 -15v58q13 7 26.5 11.5t30 5t43 -7t41 -10.5
t33.5 2t38 19z" />
    <glyph glyph-name="Umacron" unicode="&#x16a;" horiz-adv-x="397" 
d="M276 146v559h71v-556q0 -68 -42 -111.5t-107 -43.5q-66 0 -108 43.5t-42 111.5v556h71v-559q0 -21 8.5 -41t28.5 -31t42 -11q33 0 55.5 21.5t22.5 61.5zM287 754h-181v51h181v-51z" />
    <glyph glyph-name="umacron" unicode="&#x16b;" horiz-adv-x="354" 
d="M243 120v441h68v-433q0 -61 -36.5 -97.5t-97.5 -36.5q-62 0 -98.5 36.5t-36.5 97.5v433h68v-441q0 -30 19 -47t48 -17q28 0 47 17t19 47zM268 609h-181v51h181v-51z" />
    <glyph glyph-name="Ubreve" unicode="&#x16c;" horiz-adv-x="397" 
d="M276 146v559h71v-556q0 -68 -42 -111.5t-107 -43.5q-66 0 -108 43.5t-42 111.5v556h71v-559q0 -21 8.5 -41t28.5 -31t42 -11q33 0 55.5 21.5t22.5 61.5zM100 842v10h54v-14q0 -19 11 -29t30 -10q16 0 29 10t13 28v15h54v-11q0 -43 -25.5 -67t-70.5 -24q-44 0 -69.5 25.5
t-25.5 66.5z" />
    <glyph glyph-name="ubreve" unicode="&#x16d;" horiz-adv-x="354" 
d="M243 120v441h68v-433q0 -61 -36.5 -97.5t-97.5 -36.5q-62 0 -98.5 36.5t-36.5 97.5v433h68v-441q0 -30 19 -47t48 -17q28 0 47 17t19 47zM81 697v10h54v-14q0 -19 11 -29t30 -10q16 0 29 10t13 28v15h54v-11q0 -43 -25.5 -67t-70.5 -24q-44 0 -69.5 25.5t-25.5 66.5z" />
    <glyph glyph-name="Uring" unicode="&#x16e;" horiz-adv-x="397" 
d="M276 146v559h71v-556q0 -68 -42 -111.5t-107 -43.5q-66 0 -108 43.5t-42 111.5v556h71v-559q0 -21 8.5 -41t28.5 -31t42 -11q33 0 55.5 21.5t22.5 61.5zM197 787q7 0 12.5 5.5t5.5 12.5t-5.5 12.5t-12.5 5.5t-12.5 -5.5t-5.5 -12.5t5.5 -12.5t12.5 -5.5zM197 751
q-22 0 -38 16t-16 38q0 21 16 37t38 16t38 -16t16 -37q0 -22 -16 -38t-38 -16z" />
    <glyph glyph-name="uring" unicode="&#x16f;" horiz-adv-x="354" 
d="M243 120v441h68v-433q0 -61 -36.5 -97.5t-97.5 -36.5q-62 0 -98.5 36.5t-36.5 97.5v433h68v-441q0 -30 19 -47t48 -17q28 0 47 17t19 47zM177 640q7 0 12.5 5.5t5.5 12.5t-5.5 12.5t-12.5 5.5t-12.5 -5.5t-5.5 -12.5t5.5 -12.5t12.5 -5.5zM177 604q-22 0 -38 16t-16 38
q0 21 16 37t38 16t38 -16t16 -37q0 -22 -16 -38t-38 -16z" />
    <glyph glyph-name="Uhungarumlaut" unicode="&#x170;" horiz-adv-x="397" 
d="M276 146v559h71v-556q0 -68 -42 -111.5t-107 -43.5q-66 0 -108 43.5t-42 111.5v556h71v-559q0 -21 8.5 -41t28.5 -31t42 -11q33 0 55.5 21.5t22.5 61.5zM174 754h-44l40 99h59zM260 754h-44l40 99h58z" />
    <glyph glyph-name="uhungarumlaut" unicode="&#x171;" horiz-adv-x="354" 
d="M243 120v441h68v-433q0 -61 -36.5 -97.5t-97.5 -36.5q-62 0 -98.5 36.5t-36.5 97.5v433h68v-441q0 -30 19 -47t48 -17q28 0 47 17t19 47zM147 611h-44l40 99h59zM233 611h-44l40 99h58z" />
    <glyph glyph-name="Uogonek" unicode="&#x172;" horiz-adv-x="397" 
d="M272 -83v-57q-30 -6 -52 -6t-44 9.5t-34.5 34.5t-10.5 58q2 27 14 46q-21 7 -44 24.5t-38 50.5t-15 72v556h71v-559q0 -21 8.5 -41t28.5 -31t42 -11q33 0 55.5 21.5t22.5 61.5v559h71v-556q0 -47 -22 -83.5t-59 -56.5q-10 -5 -35 -12.5t-32 -17t-7 -23.5q0 -23 11.5 -33
t35.5 -10q16 0 33 4z" />
    <glyph glyph-name="uogonek" unicode="&#x173;" horiz-adv-x="356" 
d="M260 -83v-57q-30 -6 -52 -6t-44 9.5t-34.5 34.5t-10.5 58q2 27 13 44q-42 12 -65.5 45.5t-23.5 82.5v433h68v-441q0 -30 19 -47t48 -17q28 0 47 17t19 47v441h68v-433q0 -48 -25.5 -81t-68.5 -47q-18 -6 -28 -16t-10 -28q0 -23 11.5 -33t35.5 -10q16 0 33 4z" />
    <glyph glyph-name="Wcircumflex" unicode="&#x174;" horiz-adv-x="539" 
d="M127 0l-111 705h72l77 -512l73 512h62l73 -512l77 512h71l-111 -705h-70l-71 505l-71 -505h-71zM216 754h-57l76 100h64l76 -100h-57l-51 55z" />
    <glyph glyph-name="wcircumflex" unicode="&#x175;" horiz-adv-x="485" 
d="M115 0l-99 561h69l65 -390l62 390h59l61 -390l66 390h69l-99 -561h-66l-61 387l-60 -387h-66zM190 608h-57l76 100h64l76 -100h-57l-51 55z" />
    <glyph glyph-name="Ycircumflex" unicode="&#x176;" horiz-adv-x="375" 
d="M151 0v265l-136 440h74l98 -336l98 336h74l-137 -440v-265h-71zM137 754h-57l76 100h64l76 -100h-57l-51 55z" />
    <glyph glyph-name="ycircumflex" unicode="&#x177;" horiz-adv-x="342" 
d="M93 -189l42 196l-118 554h72l81 -419l81 419h73l-161 -750h-70zM119 608h-57l76 100h64l76 -100h-57l-51 55z" />
    <glyph glyph-name="Ydieresis" unicode="&#x178;" horiz-adv-x="375" 
d="M151 0v265l-136 440h74l98 -336l98 336h74l-137 -440v-265h-71zM100 785q0 13 10.5 23.5t23.5 10.5t23.5 -10.5t10.5 -23.5t-10.5 -23.5t-23.5 -10.5t-23.5 10.5t-10.5 23.5zM205 785q0 13 10.5 23.5t23.5 10.5t23.5 -10.5t10.5 -23.5t-10.5 -23.5t-23.5 -10.5
t-23.5 10.5t-10.5 23.5z" />
    <glyph glyph-name="Zacute" unicode="&#x179;" horiz-adv-x="334" 
d="M296 69v-69h-274l191 636h-175v69h265l-192 -636h185zM182 754h-55l46 102h73z" />
    <glyph glyph-name="zacute" unicode="&#x17a;" horiz-adv-x="306" 
d="M269 62v-62h-247l166 500h-154v61h243l-165 -499h157zM170 608h-55l46 102h73z" />
    <glyph glyph-name="Zdotaccent" unicode="&#x17b;" horiz-adv-x="334" 
d="M296 69v-69h-274l191 636h-175v69h265l-192 -636h185zM210 791q0 -16 -13 -28.5t-29 -12.5q-18 0 -30.5 12.5t-12.5 28.5q0 18 12.5 30t30.5 12q17 0 29.5 -12.5t12.5 -29.5z" />
    <glyph glyph-name="zdotaccent" unicode="&#x17c;" horiz-adv-x="306" 
d="M269 62v-62h-247l166 500h-154v61h243l-165 -499h157zM196 645q0 -16 -13 -28.5t-29 -12.5q-18 0 -30.5 12.5t-12.5 28.5q0 18 12.5 30t30.5 12q17 0 29.5 -12.5t12.5 -29.5z" />
    <glyph glyph-name="Zcaron" unicode="&#x17d;" horiz-adv-x="334" 
d="M296 69v-69h-274l191 636h-175v69h265l-192 -636h185zM63 853h58l52 -55l50 55h57l-76 -100h-63z" />
    <glyph glyph-name="zcaron" unicode="&#x17e;" horiz-adv-x="306" 
d="M269 62v-62h-247l166 500h-154v61h243l-165 -499h157zM42 707h58l52 -55l50 55h57l-76 -100h-63z" />
    <glyph glyph-name="florin" unicode="&#x192;" horiz-adv-x="240" 
d="M140 561h70v-61h-70v-500q0 -119 -27 -155.5t-89 -36.5v64q20 0 34 13t14 58v557h-38v61h38v78q0 67 24 94.5t75 27.5q26 0 39 -3v-59l-15 1q-32 0 -43.5 -15t-11.5 -60v-64z" />
    <glyph glyph-name="Scommaaccent" unicode="&#x218;" horiz-adv-x="338" 
d="M170 712q63 0 103.5 -40.5t40.5 -111.5h-70q0 20 -7.5 40.5t-26 32t-41.5 11.5q-31 0 -52 -19.5t-21 -52.5q0 -43 39 -101l124 -179q24 -35 41.5 -72t17.5 -83q0 -64 -40.5 -104t-106.5 -40q-67 0 -109 41.5t-42 115.5h71q0 -22 8 -43.5t28 -33t45 -11.5q33 0 54 21.5
t21 56.5q0 25 -8.5 48.5t-33.5 58.5l-123 179q-56 82 -56 146q0 23 7.5 47.5t27.5 48t51 34t58 10.5zM139 -176h-44l34 133h74z" />
    <glyph glyph-name="scommaaccent" unicode="&#x219;" horiz-adv-x="336" 
d="M164 568q65 0 99.5 -33t34.5 -97h-67q0 34 -18 51.5t-44 17.5q-28 0 -45.5 -17.5t-17.5 -44.5q0 -15 7.5 -33.5t21.5 -34.5l111 -128q25 -29 40.5 -59.5t15.5 -72.5q0 -34 -18 -63t-47 -44.5t-68 -15.5q-64 0 -100.5 35t-36.5 96h68q0 -34 19 -52t50 -18q29 0 47 19
t18 45q0 21 -5.5 37.5t-25.5 39.5l-110 128q-54 62 -54 122q0 22 10.5 50t40.5 50t74 22zM141 -176h-44l34 133h74z" />
    <glyph glyph-name="circumflex" unicode="&#x2c6;" horiz-adv-x="363" 
d="M130 584h-57l76 100h64l76 -100h-57l-51 55z" />
    <glyph glyph-name="caron" unicode="&#x2c7;" horiz-adv-x="363" 
d="M72 683h58l52 -55l50 55h57l-76 -100h-63z" />
    <glyph glyph-name="breve" unicode="&#x2d8;" horiz-adv-x="346" 
d="M77 672v10h54v-14q0 -19 11 -29t30 -10q16 0 29 10t13 28v15h54v-11q0 -43 -25.5 -67t-70.5 -24q-44 0 -69.5 25.5t-25.5 66.5z" />
    <glyph glyph-name="dotaccent" unicode="&#x2d9;" horiz-adv-x="333" 
d="M208 621q0 -16 -13 -28.5t-29 -12.5q-18 0 -30.5 12.5t-12.5 28.5q0 18 12.5 30t30.5 12q17 0 29.5 -12.5t12.5 -29.5z" />
    <glyph glyph-name="ring" unicode="&#x2da;" horiz-adv-x="342" 
d="M171 617q7 0 12.5 5.5t5.5 12.5t-5.5 12.5t-12.5 5.5t-12.5 -5.5t-5.5 -12.5t5.5 -12.5t12.5 -5.5zM171 581q-22 0 -38 16t-16 38q0 21 16 37t38 16t38 -16t16 -37q0 -22 -16 -38t-38 -16z" />
    <glyph glyph-name="ogonek" unicode="&#x2db;" horiz-adv-x="348" 
d="M236 -83v-57q-30 -6 -52 -6t-44 9.5t-34.5 34.5t-10.5 58q2 46 40.5 70t99.5 22v-48q-44 0 -61.5 -11t-17.5 -33q0 -23 11.5 -33t35.5 -10q16 0 33 4z" />
    <glyph glyph-name="tilde" unicode="&#x2dc;" horiz-adv-x="363" 
d="M286 659v-58q-16 -11 -31 -15.5t-30 -4.5t-40.5 8.5t-37 10t-21 1t-23 -4.5t-29.5 -15v58q13 7 26.5 11.5t30 5t43 -7t41 -10.5t33.5 2t38 19z" />
    <glyph glyph-name="hungarumlaut" unicode="&#x2dd;" horiz-adv-x="331" 
d="M141 584h-44l40 99h59zM227 584h-44l40 99h58z" />
    <glyph glyph-name="pi" unicode="&#x3c0;" horiz-adv-x="431" 
d="M178 83h-50v541h82q103 0 103 -106v-189q0 -101 -99 -101h-36v-145zM205 577h-27v-301h27q31 0 45.5 12t14.5 42v188q0 32 -15 45.5t-45 13.5zM53 164v380q0 79 45 124t119 45t119 -45t45 -124v-380q0 -79 -45 -124t-119 -45t-119 45t-45 124zM351 164v380
q0 65 -36.5 102t-97.5 37t-97.5 -37t-36.5 -102v-380q0 -65 36.5 -102t97.5 -37t97.5 37t36.5 102z" />
    <glyph glyph-name="uni1E02" unicode="&#x1e02;" horiz-adv-x="383" 
d="M54 0v705h135q68 0 107.5 -33.5t39.5 -100.5v-105q0 -84 -56 -106q30 -12 45 -36.5t15 -70.5v-121q0 -67 -39 -99.5t-108 -32.5h-139zM125 68h66q30 0 47.5 9.5t24 30t6.5 47.5v93q0 46 -18 64.5t-54 18.5h-72v-263zM125 388h69q47 0 59 24t12 63v71q0 51 -18 70.5
t-61 19.5h-61v-248zM233 794q0 -16 -13 -28.5t-29 -12.5q-18 0 -30.5 12.5t-12.5 28.5q0 18 12.5 30t30.5 12q17 0 29.5 -12.5t12.5 -29.5z" />
    <glyph glyph-name="uni1E03" unicode="&#x1e03;" 
d="M203 -6q-17 0 -36 5.5t-33.5 17t-21.5 22.5v-39h-64v758h68v-236q14 23 38 34.5t49 11.5q52 0 83 -32.5t31 -99.5v-310q0 -66 -30 -99t-84 -33zM182 53q30 0 48.5 18.5t18.5 52.5v314q0 33 -18.5 52t-48.5 19q-28 0 -47 -18.5t-19 -49.5v-317q0 -34 18.5 -52.5
t47.5 -18.5zM253 645q0 -16 -13 -28.5t-29 -12.5q-18 0 -30.5 12.5t-12.5 28.5q0 18 12.5 30t30.5 12q17 0 29.5 -12.5t12.5 -29.5z" />
    <glyph glyph-name="uni1E0A" unicode="&#x1e0a;" horiz-adv-x="393" 
d="M199 705q68 -1 108.5 -44t40.5 -121v-374q0 -50 -16.5 -86t-49.5 -58t-83 -22h-144v705h144zM278 540q0 37 -14.5 59.5t-35 29.5t-37.5 7h-65v-568h65q27 0 48.5 13t30 36.5t8.5 48.5v374zM228 789q0 -16 -13 -28.5t-29 -12.5q-18 0 -30.5 12.5t-12.5 28.5q0 18 12.5 30
t30.5 12q17 0 29.5 -12.5t12.5 -29.5z" />
    <glyph glyph-name="uni1E0B" unicode="&#x1e0b;" 
d="M155 -6q-52 0 -83 32.5t-31 99.5v309q0 67 31 99.5t83 32.5q25 0 50 -11.5t37 -32.5v235h68v-758h-64v39q-7 -11 -22 -22.5t-33.5 -17t-35.5 -5.5zM176 53q30 0 48 18.5t18 52.5v316q0 32 -18 50t-48 18t-48 -18.5t-18 -52.5v-313q0 -34 18 -52.5t48 -18.5zM188 645
q0 -16 -13 -28.5t-29 -12.5q-18 0 -30.5 12.5t-12.5 28.5q0 18 12.5 30t30.5 12q17 0 29.5 -12.5t12.5 -29.5z" />
    <glyph glyph-name="uni1E1E" unicode="&#x1e1e;" horiz-adv-x="328" 
d="M295 705v-69h-170v-245h121v-63h-121v-328h-71v705h241zM225 792q0 -16 -13 -28.5t-29 -12.5q-18 0 -30.5 12.5t-12.5 28.5q0 18 12.5 30t30.5 12q17 0 29.5 -12.5t12.5 -29.5z" />
    <glyph glyph-name="uni1E1F" unicode="&#x1e1f;" horiz-adv-x="235" 
d="M205 758v-59l-15 1q-32 0 -43.5 -15t-11.5 -60v-64h70v-61h-70v-500h-68v500h-38v61h38v78q0 67 24 94.5t75 27.5q26 0 39 -3zM185 840q0 -16 -13 -28.5t-29 -12.5q-18 0 -30.5 12.5t-12.5 28.5q0 18 12.5 30t30.5 12q17 0 29.5 -12.5t12.5 -29.5z" />
    <glyph glyph-name="uni1E40" unicode="&#x1e40;" horiz-adv-x="481" 
d="M214 63l-89 384v-447h-70v705h69l115 -517l116 517h70v-705h-71v449l-90 -386h-50zM281 772q0 -16 -13 -28.5t-29 -12.5q-18 0 -30.5 12.5t-12.5 28.5q0 18 12.5 30t30.5 12q17 0 29.5 -12.5t12.5 -29.5z" />
    <glyph glyph-name="uni1E41" unicode="&#x1e41;" horiz-adv-x="509" 
d="M116 449v-449h-68v561h65v-33q29 39 76 39q30 0 52.5 -13.5t34.5 -37.5q11 21 34 36t54 15q47 0 73.5 -31t26.5 -92v-444h-68v447q0 30 -15.5 46t-37.5 16q-19 0 -36 -15.5t-17 -44.5v-449h-68v447q0 30 -15 46t-38 16q-20 0 -36.5 -16t-16.5 -44zM307 645
q0 -16 -13 -28.5t-29 -12.5q-18 0 -30.5 12.5t-12.5 28.5q0 18 12.5 30t30.5 12q17 0 29.5 -12.5t12.5 -29.5z" />
    <glyph glyph-name="uni1E56" unicode="&#x1e56;" horiz-adv-x="380" 
d="M126 0h-72v705h137q67 0 108 -41.5t41 -116.5v-194q0 -74 -41 -115t-108 -41h-65v-197zM183 636h-57v-371h57q27 0 48.5 12t30 33.5t8.5 43.5v193q0 23 -8.5 44.5t-29.5 33t-49 11.5zM234 790q0 -16 -13 -28.5t-29 -12.5q-18 0 -30.5 12.5t-12.5 28.5q0 18 12.5 30
t30.5 12q17 0 29.5 -12.5t12.5 -29.5z" />
    <glyph glyph-name="uni1E57" unicode="&#x1e57;" horiz-adv-x="362" 
d="M203 566q54 0 84 -33t30 -99v-307q0 -67 -31 -99.5t-83 -32.5q-25 0 -49 11t-38 34v-229h-68v750h64v-40q15 22 40.5 33.5t50.5 11.5zM182 507q-29 0 -47.5 -18t-18.5 -51v-313q0 -33 18.5 -51.5t47.5 -18.5q30 0 48.5 18.5t18.5 51.5v311q0 34 -18.5 52.5t-48.5 18.5z
M223 645q0 -16 -13 -28.5t-29 -12.5q-18 0 -30.5 12.5t-12.5 28.5q0 18 12.5 30t30.5 12q17 0 29.5 -12.5t12.5 -29.5z" />
    <glyph glyph-name="uni1E60" unicode="&#x1e60;" horiz-adv-x="338" 
d="M170 712q63 0 103.5 -40.5t40.5 -111.5h-70q0 20 -7.5 40.5t-26 32t-41.5 11.5q-31 0 -52 -19.5t-21 -52.5q0 -43 39 -101l124 -179q24 -35 41.5 -72t17.5 -83q0 -64 -40.5 -104t-106.5 -40q-67 0 -109 41.5t-42 115.5h71q0 -22 8 -43.5t28 -33t45 -11.5q33 0 54 21.5
t21 56.5q0 25 -8.5 48.5t-33.5 58.5l-123 179q-56 82 -56 146q0 23 7.5 47.5t27.5 48t51 34t58 10.5zM211 788q0 -16 -13 -28.5t-29 -12.5q-18 0 -30.5 12.5t-12.5 28.5q0 18 12.5 30t30.5 12q17 0 29.5 -12.5t12.5 -29.5z" />
    <glyph glyph-name="uni1E61" unicode="&#x1e61;" horiz-adv-x="336" 
d="M164 568q65 0 99.5 -33t34.5 -97h-67q0 34 -18 51.5t-44 17.5q-28 0 -45.5 -17.5t-17.5 -44.5q0 -15 7.5 -33.5t21.5 -34.5l111 -128q25 -29 40.5 -59.5t15.5 -72.5q0 -34 -18 -63t-47 -44.5t-68 -15.5q-64 0 -100.5 35t-36.5 96h68q0 -34 19 -52t50 -18q29 0 47 19
t18 45q0 21 -5.5 37.5t-25.5 39.5l-110 128q-54 62 -54 122q0 22 10.5 50t40.5 50t74 22zM207 647q0 -16 -13 -28.5t-29 -12.5q-18 0 -30.5 12.5t-12.5 28.5q0 18 12.5 30t30.5 12q17 0 29.5 -12.5t12.5 -29.5z" />
    <glyph glyph-name="uni1E6A" unicode="&#x1e6a;" horiz-adv-x="331" 
d="M304 705v-69h-104v-636h-72v636h-102v69h278zM207 791q0 -16 -13 -28.5t-29 -12.5q-18 0 -30.5 12.5t-12.5 28.5q0 18 12.5 30t30.5 12q17 0 29.5 -12.5t12.5 -29.5z" />
    <glyph glyph-name="uni1E6B" unicode="&#x1e6b;" horiz-adv-x="236" 
d="M21 500v58q33 0 44.5 17.5t11.5 71.5h50v-86h82v-61h-82v-375q0 -40 15 -54.5t51 -14.5l16 1v-60l-30 -2q-61 0 -90.5 29t-29.5 108v368h-38zM145 718q0 -16 -13 -28.5t-29 -12.5q-18 0 -30.5 12.5t-12.5 28.5q0 18 12.5 30t30.5 12q17 0 29.5 -12.5t12.5 -29.5z" />
    <glyph glyph-name="Wgrave" unicode="&#x1e80;" horiz-adv-x="539" 
d="M127 0l-111 705h72l77 -512l73 512h62l73 -512l77 512h71l-111 -705h-70l-71 505l-71 -505h-71zM300 753h-56l-64 103h74z" />
    <glyph glyph-name="wgrave" unicode="&#x1e81;" horiz-adv-x="485" 
d="M115 0l-99 561h69l65 -390l62 390h59l61 -390l66 390h69l-99 -561h-66l-61 387l-60 -387h-66zM272 608h-56l-64 103h74z" />
    <glyph glyph-name="Wacute" unicode="&#x1e82;" horiz-adv-x="539" 
d="M127 0l-111 705h72l77 -512l73 512h62l73 -512l77 512h71l-111 -705h-70l-71 505l-71 -505h-71zM298 754h-55l46 102h73z" />
    <glyph glyph-name="wacute" unicode="&#x1e83;" horiz-adv-x="485" 
d="M115 0l-99 561h69l65 -390l62 390h59l61 -390l66 390h69l-99 -561h-66l-61 387l-60 -387h-66zM270 609h-55l46 102h73z" />
    <glyph glyph-name="Wdieresis" unicode="&#x1e84;" horiz-adv-x="539" 
d="M127 0l-111 705h72l77 -512l73 512h62l73 -512l77 512h71l-111 -705h-70l-71 505l-71 -505h-71zM181 785q0 13 10.5 23.5t23.5 10.5t23.5 -10.5t10.5 -23.5t-10.5 -23.5t-23.5 -10.5t-23.5 10.5t-10.5 23.5zM286 785q0 13 10.5 23.5t23.5 10.5t23.5 -10.5t10.5 -23.5
t-10.5 -23.5t-23.5 -10.5t-23.5 10.5t-10.5 23.5z" />
    <glyph glyph-name="wdieresis" unicode="&#x1e85;" horiz-adv-x="485" 
d="M115 0l-99 561h69l65 -390l62 390h59l61 -390l66 390h69l-99 -561h-66l-61 387l-60 -387h-66zM154 640q0 13 10.5 23.5t23.5 10.5t23.5 -10.5t10.5 -23.5t-10.5 -23.5t-23.5 -10.5t-23.5 10.5t-10.5 23.5zM259 640q0 13 10.5 23.5t23.5 10.5t23.5 -10.5t10.5 -23.5
t-10.5 -23.5t-23.5 -10.5t-23.5 10.5t-10.5 23.5z" />
    <glyph glyph-name="Ygrave" unicode="&#x1ef2;" horiz-adv-x="375" 
d="M151 0v265l-136 440h74l98 -336l98 336h74l-137 -440v-265h-71zM221 753h-56l-64 103h74z" />
    <glyph glyph-name="ygrave" unicode="&#x1ef3;" horiz-adv-x="342" 
d="M93 -189l42 196l-118 554h72l81 -419l81 419h73l-161 -750h-70zM202 607h-56l-64 103h74z" />
    <glyph glyph-name="endash" unicode="&#x2013;" horiz-adv-x="285" 
d="M248 298h-212v55h212v-55z" />
    <glyph glyph-name="emdash" unicode="&#x2014;" horiz-adv-x="362" 
d="M325 298h-289v55h289v-55z" />
    <glyph glyph-name="quoteleft" unicode="&#x2018;" horiz-adv-x="179" 
d="M102 705h55l-65 -209h-74z" />
    <glyph glyph-name="quoteright" unicode="&#x2019;" horiz-adv-x="176" 
d="M77 496h-55l64 209h74z" />
    <glyph glyph-name="quotesinglbase" unicode="&#x201a;" horiz-adv-x="176" 
d="M64 -79h-55l65 206h74z" />
    <glyph glyph-name="quotedblleft" unicode="&#x201c;" horiz-adv-x="294" 
d="M102 705h55l-65 -209h-74zM217 705h54l-64 -209h-73z" />
    <glyph glyph-name="quotedblright" unicode="&#x201d;" horiz-adv-x="291" 
d="M192 496h-55l64 209h74zM76 496h-54l64 209h74z" />
    <glyph glyph-name="quotedblbase" unicode="&#x201e;" horiz-adv-x="291" 
d="M179 -82h-54l64 206h73zM64 -82h-54l64 206h74z" />
    <glyph glyph-name="dagger" unicode="&#x2020;" horiz-adv-x="289" 
d="M253 534h-82v-566h-54v566h-81v47h81v124h54v-124h82v-47z" />
    <glyph glyph-name="daggerdbl" unicode="&#x2021;" horiz-adv-x="289" 
d="M252 438h-81v-470h-54v470h-81v48h81v48h-81v47h81v124h54v-124h81v-47h-81v-48h81v-48z" />
    <glyph glyph-name="bullet" unicode="&#x2022;" horiz-adv-x="329" 
d="M165 231q-58 0 -90.5 34.5t-32.5 94.5v4q0 58 32.5 93t90.5 35q29 0 57 -12t46 -42.5t18 -73.5v-4q0 -28 -10.5 -59t-40 -50.5t-70.5 -19.5z" />
    <glyph glyph-name="ellipsis" unicode="&#x2026;" horiz-adv-x="429" 
d="M308 38q0 17 12.5 30t29.5 13q18 0 30.5 -13t12.5 -30q0 -18 -12.5 -30.5t-30.5 -12.5q-17 0 -29.5 12.5t-12.5 30.5zM171 38q0 17 12.5 30t30.5 13t30.5 -13t12.5 -30q0 -18 -12.5 -30.5t-30.5 -12.5t-30.5 12.5t-12.5 30.5zM34 38q0 17 12.5 30t30.5 13t30.5 -13
t12.5 -30q0 -18 -12.5 -30.5t-30.5 -12.5t-30.5 12.5t-12.5 30.5z" />
    <glyph glyph-name="perthousand" unicode="&#x2030;" horiz-adv-x="936" 
d="M770 -5q-60 0 -94 38t-34 104v25q0 39 15 73t45.5 50.5t67.5 16.5q36 0 66.5 -17t45.5 -50.5t15 -72.5v-25q0 -66 -34 -104t-93 -38zM770 240q-63 0 -63 -76v-24q0 -84 63 -84q61 0 61 84v17q0 83 -61 83zM470 -5q-60 0 -93.5 38t-33.5 104v25q0 12 4 39.5t22 53
t44.5 36.5t56.5 11q37 0 67.5 -17t45.5 -50.5t15 -72.5v-25q0 -66 -34 -104t-94 -38zM470 240q-29 0 -45.5 -19t-16.5 -57v-24q0 -84 62 -84q63 0 63 84v24q0 38 -17 57t-46 19zM503 758l-300 -790h-66l299 790h67zM166 406q-60 0 -93.5 37.5t-33.5 103.5v26q0 12 4 39.5
t22 53t44.5 36.5t56.5 11q36 0 67 -17t46 -50.5t15 -72.5v-26q0 -65 -34.5 -103t-93.5 -38zM166 651q-29 0 -45.5 -19.5t-16.5 -57.5v-23q0 -83 62 -83q29 0 46 20.5t17 62.5v23q0 38 -16.5 57.5t-46.5 19.5z" />
    <glyph glyph-name="guilsinglleft" unicode="&#x2039;" horiz-adv-x="207" 
d="M118 454h55l-65 -128l65 -129h-55l-83 129z" />
    <glyph glyph-name="guilsinglright" unicode="&#x203a;" horiz-adv-x="207" 
d="M34 454h54l83 -128l-83 -129h-54l64 129z" />
    <glyph glyph-name="Euro" unicode="&#x20ac;" horiz-adv-x="404" 
d="M367 532h-71v26q0 40 -22.5 62t-56.5 22t-56 -22t-22 -62v-149h81v-31h-81v-37h81v-31h-81v-163q0 -40 22 -62t56 -22t56.5 22t22.5 62v32h71v-30q0 -68 -42 -111.5t-108 -43.5t-107.5 43.5t-41.5 111.5v161h-39v31h39v37h-39v31h39v146q0 69 41.5 112.5t107.5 43.5
t108 -43.5t42 -112.5v-23z" />
    <glyph glyph-name="trademark" unicode="&#x2122;" horiz-adv-x="489" 
d="M189 705v-43h-54v-229h-45v229h-54v43h153zM308 461l-49 122v-150h-46v272h44l66 -174l65 174h44v-272h-45v149l-48 -121h-31z" />
    <glyph glyph-name="minus" unicode="&#x2212;" horiz-adv-x="327" 
d="M285 328h-243v63h243v-63z" />
    <glyph glyph-name="notequal" unicode="&#x2260;" horiz-adv-x="765" 
d="M109 589q52 -42 104 -48.5t132 21t115 35.5t75 8.5t88 -13t99 -44.5q-29 -105 -56 -231t-39 -223q-15 14 -39 30t-53 24t-61.5 8t-95.5 -14t-93.5 -13t-56.5 11.5t-51 33.5l31 -169l-28 -5l-113 616l28 1l60 -328zM418 322l-36 31q15 21 19 48.5t-7 50.5
q-17 35 -54.5 48.5t-72.5 -2.5l-17 -10l6 3q29 13 60 2t45 -40q8 -18 6.5 -39.5t-12.5 -37.5l-44 38l34 40l-54 9l-60 -71l35 -30l29 34l45 -37q-6 -6 -18 -11q-12 -6 -30.5 -7.5t-38.5 8.5q-12 7 -19 14l-12 -14l-29 -34l18 -15l28 32q22 -16 50.5 -19.5t54.5 8.5
q14 7 22 15l37 -32zM103 636q1 -4 -1 -6.5t-6 -3.5l-33 -6q-4 -1 -6.5 1t-3.5 6q-1 7 7 9l10 2q-2 6 -12.5 10.5t-12.5 17.5q-2 11 2.5 32.5t4.5 29.5q-9 3 -9 13q0 6 4 10t10 4q5 0 9.5 -4.5t4.5 -9.5q0 -4 -4 -10q3 -7 15.5 -26t14.5 -30q3 -13 -5.5 -20.5t-7.5 -13.5l9 2
q3 1 6 -1t4 -6z" />
    <glyph glyph-name="glyph145" horiz-adv-x="334" 
d="M132 -176h-44l34 133h74z" />
    <glyph glyph-name="a.salt" horiz-adv-x="343" 
d="M230 122v208q-21 -24 -52 -47.5t-40 -30.5t-17 -18.5t-13 -26.5t-5 -39v-46q0 -34 16 -52.5t47 -18.5q32 0 47.5 19.5t16.5 51.5zM35 168q0 27 10 56t32.5 52.5t77 61.5t66 62t11.5 43q0 27 -16 45.5t-45 18.5q-31 0 -47.5 -19.5t-16.5 -53.5h-65q0 62 32.5 97.5
t97.5 35.5q43 0 71 -16.5t42 -48.5t14 -78v-424h-64v38q-11 -21 -36.5 -32.5t-51.5 -11.5q-36 0 -63.5 17t-38 43.5t-10.5 51.5v62z" />
    </font>
</defs>
</svg>
